M48
; DRILL file {KiCad 6.0.8+dfsg-1} date qui 27 out 2022 21:27:37
; FORMAT={-:-/ absolute / inch / decimal}
; #@! TF.CreationDate,2022-10-27T21:27:37-03:00
; #@! TF.GenerationSoftware,Kicad,Pcbnew,6.0.8+dfsg-1
; #@! TF.FileFunction,Plated,1,2,PTH
FMAT,2
INCH
; #@! TA.AperFunction,Plated,PTH,ViaDrill
T1C0.0157
; #@! TA.AperFunction,Plated,PTH,ComponentDrill
T2C0.0236
; #@! TA.AperFunction,Plated,PTH,ComponentDrill
T3C0.0276
; #@! TA.AperFunction,Plated,PTH,ComponentDrill
T4C0.0315
; #@! TA.AperFunction,Plated,PTH,ComponentDrill
T5C0.0362
; #@! TA.AperFunction,Plated,PTH,ComponentDrill
T6C0.0394
; #@! TA.AperFunction,Plated,PTH,ComponentDrill
T7C0.0400
; #@! TA.AperFunction,Plated,PTH,ComponentDrill
T8C0.0433
; #@! TA.AperFunction,Plated,PTH,ComponentDrill
T9C0.0591
; #@! TA.AperFunction,Plated,PTH,ComponentDrill
T10C0.0917
%
G90
G05
T1
X2.2401Y-3.7641
X4.2879Y-4.1317
X4.7233Y-3.623
X5.0149Y-3.6402
X5.5886Y-2.4262
X7.4848Y-3.9433
X7.7438Y-3.1011
X8.719Y-3.7425
X8.8531Y-3.8027
X8.8942Y-3.4225
X9.2537Y-3.5653
X9.5989Y-3.5228
T2
X8.8169Y-3.6516
X8.8169Y-3.7106
T3
X1.8386Y-2.874
X1.8386Y-2.9921
X1.8386Y-4.3701
X1.8386Y-4.4882
X2.1457Y-2.874
X2.1457Y-2.9921
X2.1457Y-4.3701
X2.1457Y-4.4882
X2.5846Y-2.874
X2.5846Y-2.9921
X2.5846Y-4.3701
X2.5846Y-4.4882
X2.8917Y-2.874
X2.8917Y-2.9921
X2.8917Y-4.3701
X2.8917Y-4.4882
X3.3386Y-2.874
X3.3386Y-2.9921
X3.3386Y-4.3701
X3.3386Y-4.4882
X3.6457Y-2.874
X3.6457Y-2.9921
X3.6457Y-4.3701
X3.6457Y-4.4882
X4.0846Y-2.874
X4.0846Y-2.9921
X4.0886Y-4.3701
X4.0886Y-4.4961
X4.3917Y-2.874
X4.3917Y-2.9921
X4.3957Y-4.3701
X4.3957Y-4.4961
X4.8327Y-2.874
X4.8366Y-3.0
X4.8366Y-4.3701
X4.8366Y-4.4882
X5.1398Y-2.874
X5.1437Y-3.0
X5.1437Y-4.3701
X5.1437Y-4.4882
X5.5827Y-2.874
X5.5827Y-2.9921
X5.5906Y-4.3701
X5.5906Y-4.4882
X5.8898Y-2.874
X5.8898Y-2.9921
X5.8976Y-4.3701
X5.8976Y-4.4882
X6.0551Y-3.0236
X6.0551Y-3.3307
X6.062Y-3.5148
X6.062Y-3.8219
X6.2461Y-3.628
X6.2472Y-3.752
X6.3366Y-2.8701
X6.3366Y-2.9882
X6.3366Y-4.3661
X6.3366Y-4.4843
X6.5461Y-3.628
X6.5472Y-3.752
X6.6437Y-2.8701
X6.6437Y-2.9882
X6.6437Y-4.3661
X6.6437Y-4.4843
X6.8976Y-3.752
X6.9028Y-3.6181
X7.0827Y-2.874
X7.0827Y-2.9921
X7.0827Y-4.3701
X7.0827Y-4.4882
X7.1976Y-3.752
X7.2028Y-3.6181
X7.3898Y-2.874
X7.3898Y-2.9921
X7.3898Y-4.3701
X7.3898Y-4.4882
X7.8244Y-4.3701
X7.8248Y-2.874
X7.8248Y-2.9921
X7.8248Y-4.4882
X8.1315Y-4.3701
X8.1319Y-2.874
X8.1319Y-2.9921
X8.1319Y-4.4882
X8.5827Y-2.874
X8.5827Y-2.9921
X8.5827Y-4.3701
X8.5827Y-4.4882
X8.8898Y-2.874
X8.8898Y-2.9921
X8.8898Y-4.3701
X8.8898Y-4.4882
X9.2382Y-4.3701
X9.2382Y-4.4882
X9.2854Y-2.8711
X9.2854Y-2.9921
X9.5453Y-4.3701
X9.5453Y-4.4882
X9.5925Y-2.8711
X9.5925Y-2.9921
X9.9961Y-4.3701
X9.9961Y-4.4882
X10.0354Y-2.8701
X10.0354Y-2.9921
X10.3031Y-4.3701
X10.3031Y-4.4882
X10.3425Y-2.8701
X10.3425Y-2.9921
T4
X3.8984Y-3.5484
X3.8984Y-3.8484
X3.9984Y-3.5484
X3.9984Y-3.8484
X4.0984Y-3.5484
X4.0984Y-3.8484
X4.1984Y-3.5484
X4.1984Y-3.8484
X4.2984Y-3.5484
X4.2984Y-3.8484
X4.3949Y-4.061
X4.3984Y-3.5484
X4.3984Y-3.8484
X4.452Y-3.3937
X4.4933Y-4.061
X4.4984Y-3.5484
X4.4984Y-3.8484
X4.5984Y-3.5484
X4.5984Y-3.8484
X4.6488Y-3.3937
X4.6772Y-4.0622
X4.6984Y-3.5484
X4.6984Y-3.8484
X4.7984Y-3.5484
X4.7984Y-3.8484
X4.8701Y-4.0622
X4.8984Y-3.5484
X4.8984Y-3.8484
X4.9984Y-3.5484
X4.9984Y-3.8484
X5.072Y-4.061
X5.0984Y-3.5484
X5.0984Y-3.8484
X5.1705Y-4.061
X5.1984Y-3.5484
X5.1984Y-3.8484
X8.5965Y-3.6358
X8.5965Y-3.7343
T5
X6.0148Y-2.5098
X6.0148Y-2.5886
X6.1132Y-2.5098
X6.1132Y-2.5886
T6
X1.7411Y-3.6283
X1.7411Y-3.7283
X1.8411Y-3.6283
X1.8411Y-3.7283
X1.9411Y-3.6283
X1.9411Y-3.7283
X2.311Y-3.1321
X2.311Y-3.2321
X2.311Y-3.3321
X2.311Y-3.4321
X2.498Y-3.6811
X2.598Y-3.6811
X2.698Y-3.6811
X2.798Y-3.6811
X2.898Y-3.6811
X2.998Y-3.6811
X3.098Y-3.6811
X3.198Y-3.6811
X3.298Y-3.6811
X3.398Y-3.6811
X3.498Y-3.6811
X3.598Y-3.6811
X6.6043Y-2.2589
X6.7043Y-2.2589
X6.8043Y-2.2589
X6.9043Y-2.2589
X7.0043Y-2.2589
X7.8069Y-2.253
X7.9069Y-2.253
X8.0069Y-2.253
X8.1069Y-2.253
T7
X9.2386Y-3.4008
X9.2386Y-3.7008
X9.2386Y-3.8008
X9.2386Y-3.9008
X9.2386Y-4.0008
X9.3386Y-3.4008
X9.3386Y-4.0008
X9.4386Y-3.4008
X9.4386Y-4.0008
X9.5386Y-3.4008
X9.5386Y-4.0008
X9.6386Y-3.4008
X9.6386Y-4.0008
X9.7386Y-3.4008
X9.7386Y-4.0008
X9.8386Y-3.4008
X9.8386Y-4.0008
X9.8936Y-3.8858
X9.9386Y-3.4008
X9.9386Y-4.0008
X9.9936Y-3.8858
X10.0386Y-3.4008
X10.0386Y-4.0008
X10.1386Y-3.4008
X10.1386Y-4.0008
X10.2386Y-3.4008
X10.2386Y-4.0008
X10.3386Y-3.4008
X10.3386Y-4.0008
X10.4386Y-3.4508
X10.4386Y-3.5508
X10.4386Y-3.6508
X10.4386Y-3.7508
X10.4386Y-3.8508
X10.4386Y-3.9508
T8
X7.7874Y-3.5906
X7.7874Y-3.7677
X8.0433Y-3.5906
X8.0433Y-3.7677
X8.1732Y-3.5906
X8.1732Y-3.7677
X8.4291Y-3.5906
X8.4291Y-3.7677
T9
X1.8386Y-2.7362
X1.8386Y-3.1496
X1.8386Y-4.2323
X1.8386Y-4.6457
X2.0354Y-2.7165
X2.0354Y-3.1299
X2.0354Y-4.2126
X2.0354Y-4.626
X2.5886Y-2.7362
X2.5886Y-3.1496
X2.5886Y-4.2323
X2.5886Y-4.6457
X2.7854Y-2.7165
X2.7854Y-3.1299
X2.7854Y-4.2126
X2.7854Y-4.626
X3.3386Y-2.7362
X3.3386Y-3.1496
X3.3386Y-4.2323
X3.3386Y-4.6457
X3.5354Y-2.7165
X3.5354Y-3.1299
X3.5354Y-4.2126
X3.5354Y-4.626
X4.0886Y-2.7362
X4.0886Y-3.1496
X4.0886Y-4.2323
X4.0886Y-4.6457
X4.2854Y-2.7165
X4.2854Y-3.1299
X4.2854Y-4.2126
X4.2854Y-4.626
X4.8366Y-2.7362
X4.8366Y-3.1496
X4.8366Y-4.2323
X4.8366Y-4.6457
X5.0335Y-2.7165
X5.0335Y-3.1299
X5.0335Y-4.2126
X5.0335Y-4.626
X5.5866Y-2.7362
X5.5886Y-3.1496
X5.5886Y-4.2323
X5.5886Y-4.6457
X5.7835Y-2.7165
X5.7854Y-3.1299
X5.7854Y-4.2126
X5.7854Y-4.626
X6.3346Y-2.7382
X6.3346Y-3.1516
X6.3346Y-4.2343
X6.3346Y-4.6476
X6.5315Y-2.7185
X6.5315Y-3.1319
X6.5315Y-4.2146
X6.5315Y-4.628
X7.0846Y-2.7382
X7.0846Y-3.1516
X7.0846Y-4.2343
X7.0846Y-4.6476
X7.2815Y-2.7185
X7.2815Y-3.1319
X7.2815Y-4.2146
X7.2815Y-4.628
X7.8346Y-2.7382
X7.8346Y-3.1516
X7.8346Y-4.2343
X7.8346Y-4.6476
X8.0315Y-2.7185
X8.0315Y-3.1319
X8.0315Y-4.2146
X8.0315Y-4.628
X8.5846Y-3.1516
X8.5846Y-4.2343
X8.5846Y-4.6476
X8.5866Y-2.7382
X8.7815Y-3.1319
X8.7815Y-4.2146
X8.7815Y-4.628
X8.7835Y-2.7185
X9.3346Y-2.7382
X9.3346Y-3.1516
X9.3346Y-4.2343
X9.3346Y-4.6476
X9.5315Y-2.7185
X9.5315Y-3.1319
X9.5315Y-4.2146
X9.5315Y-4.628
X10.0846Y-2.7382
X10.0846Y-3.1516
X10.0846Y-4.2343
X10.0846Y-4.6476
X10.2815Y-2.7185
X10.2815Y-3.1319
X10.2815Y-4.2146
X10.2815Y-4.628
T10
X5.827Y-2.4031
X6.301Y-2.4031
T0
M30
