%TF.GenerationSoftware,KiCad,Pcbnew,6.0.8+dfsg-1*%
%TF.CreationDate,2022-10-27T21:27:42-03:00*%
%TF.ProjectId,Calebe94,43616c65-6265-4393-942e-6b696361645f,rev?*%
%TF.SameCoordinates,Original*%
%TF.FileFunction,Legend,Bot*%
%TF.FilePolarity,Positive*%
%FSLAX46Y46*%
G04 Gerber Fmt 4.6, Leading zero omitted, Abs format (unit mm)*
G04 Created by KiCad (PCBNEW 6.0.8+dfsg-1) date 2022-10-27 21:27:42*
%MOMM*%
%LPD*%
G01*
G04 APERTURE LIST*
%ADD10C,0.200000*%
%ADD11C,0.150000*%
G04 APERTURE END LIST*
D10*
%TO.C,SW22*%
X166114285Y-84657142D02*
X165900000Y-84728571D01*
X165542857Y-84728571D01*
X165400000Y-84657142D01*
X165328571Y-84585714D01*
X165257142Y-84442857D01*
X165257142Y-84300000D01*
X165328571Y-84157142D01*
X165400000Y-84085714D01*
X165542857Y-84014285D01*
X165828571Y-83942857D01*
X165971428Y-83871428D01*
X166042857Y-83800000D01*
X166114285Y-83657142D01*
X166114285Y-83514285D01*
X166042857Y-83371428D01*
X165971428Y-83300000D01*
X165828571Y-83228571D01*
X165471428Y-83228571D01*
X165257142Y-83300000D01*
X164757142Y-83228571D02*
X164400000Y-84728571D01*
X164114285Y-83657142D01*
X163828571Y-84728571D01*
X163471428Y-83228571D01*
X162971428Y-83371428D02*
X162900000Y-83300000D01*
X162757142Y-83228571D01*
X162400000Y-83228571D01*
X162257142Y-83300000D01*
X162185714Y-83371428D01*
X162114285Y-83514285D01*
X162114285Y-83657142D01*
X162185714Y-83871428D01*
X163042857Y-84728571D01*
X162114285Y-84728571D01*
X161542857Y-83371428D02*
X161471428Y-83300000D01*
X161328571Y-83228571D01*
X160971428Y-83228571D01*
X160828571Y-83300000D01*
X160757142Y-83371428D01*
X160685714Y-83514285D01*
X160685714Y-83657142D01*
X160757142Y-83871428D01*
X161614285Y-84728571D01*
X160685714Y-84728571D01*
%TO.C,SW40*%
X90014285Y-122607142D02*
X89800000Y-122678571D01*
X89442857Y-122678571D01*
X89300000Y-122607142D01*
X89228571Y-122535714D01*
X89157142Y-122392857D01*
X89157142Y-122250000D01*
X89228571Y-122107142D01*
X89300000Y-122035714D01*
X89442857Y-121964285D01*
X89728571Y-121892857D01*
X89871428Y-121821428D01*
X89942857Y-121750000D01*
X90014285Y-121607142D01*
X90014285Y-121464285D01*
X89942857Y-121321428D01*
X89871428Y-121250000D01*
X89728571Y-121178571D01*
X89371428Y-121178571D01*
X89157142Y-121250000D01*
X88657142Y-121178571D02*
X88300000Y-122678571D01*
X88014285Y-121607142D01*
X87728571Y-122678571D01*
X87371428Y-121178571D01*
X86157142Y-121678571D02*
X86157142Y-122678571D01*
X86514285Y-121107142D02*
X86871428Y-122178571D01*
X85942857Y-122178571D01*
X85085714Y-121178571D02*
X84942857Y-121178571D01*
X84800000Y-121250000D01*
X84728571Y-121321428D01*
X84657142Y-121464285D01*
X84585714Y-121750000D01*
X84585714Y-122107142D01*
X84657142Y-122392857D01*
X84728571Y-122535714D01*
X84800000Y-122607142D01*
X84942857Y-122678571D01*
X85085714Y-122678571D01*
X85228571Y-122607142D01*
X85300000Y-122535714D01*
X85371428Y-122392857D01*
X85442857Y-122107142D01*
X85442857Y-121750000D01*
X85371428Y-121464285D01*
X85300000Y-121321428D01*
X85228571Y-121250000D01*
X85085714Y-121178571D01*
%TO.C,SW11*%
X223264285Y-103657142D02*
X223050000Y-103728571D01*
X222692857Y-103728571D01*
X222550000Y-103657142D01*
X222478571Y-103585714D01*
X222407142Y-103442857D01*
X222407142Y-103300000D01*
X222478571Y-103157142D01*
X222550000Y-103085714D01*
X222692857Y-103014285D01*
X222978571Y-102942857D01*
X223121428Y-102871428D01*
X223192857Y-102800000D01*
X223264285Y-102657142D01*
X223264285Y-102514285D01*
X223192857Y-102371428D01*
X223121428Y-102300000D01*
X222978571Y-102228571D01*
X222621428Y-102228571D01*
X222407142Y-102300000D01*
X221907142Y-102228571D02*
X221550000Y-103728571D01*
X221264285Y-102657142D01*
X220978571Y-103728571D01*
X220621428Y-102228571D01*
X219264285Y-103728571D02*
X220121428Y-103728571D01*
X219692857Y-103728571D02*
X219692857Y-102228571D01*
X219835714Y-102442857D01*
X219978571Y-102585714D01*
X220121428Y-102657142D01*
X217835714Y-103728571D02*
X218692857Y-103728571D01*
X218264285Y-103728571D02*
X218264285Y-102228571D01*
X218407142Y-102442857D01*
X218550000Y-102585714D01*
X218692857Y-102657142D01*
%TO.C,SW37*%
X90014285Y-65607142D02*
X89800000Y-65678571D01*
X89442857Y-65678571D01*
X89300000Y-65607142D01*
X89228571Y-65535714D01*
X89157142Y-65392857D01*
X89157142Y-65250000D01*
X89228571Y-65107142D01*
X89300000Y-65035714D01*
X89442857Y-64964285D01*
X89728571Y-64892857D01*
X89871428Y-64821428D01*
X89942857Y-64750000D01*
X90014285Y-64607142D01*
X90014285Y-64464285D01*
X89942857Y-64321428D01*
X89871428Y-64250000D01*
X89728571Y-64178571D01*
X89371428Y-64178571D01*
X89157142Y-64250000D01*
X88657142Y-64178571D02*
X88300000Y-65678571D01*
X88014285Y-64607142D01*
X87728571Y-65678571D01*
X87371428Y-64178571D01*
X86942857Y-64178571D02*
X86014285Y-64178571D01*
X86514285Y-64750000D01*
X86300000Y-64750000D01*
X86157142Y-64821428D01*
X86085714Y-64892857D01*
X86014285Y-65035714D01*
X86014285Y-65392857D01*
X86085714Y-65535714D01*
X86157142Y-65607142D01*
X86300000Y-65678571D01*
X86728571Y-65678571D01*
X86871428Y-65607142D01*
X86942857Y-65535714D01*
X85514285Y-64178571D02*
X84514285Y-64178571D01*
X85157142Y-65678571D01*
%TO.C,SW39*%
X90014285Y-103607142D02*
X89800000Y-103678571D01*
X89442857Y-103678571D01*
X89300000Y-103607142D01*
X89228571Y-103535714D01*
X89157142Y-103392857D01*
X89157142Y-103250000D01*
X89228571Y-103107142D01*
X89300000Y-103035714D01*
X89442857Y-102964285D01*
X89728571Y-102892857D01*
X89871428Y-102821428D01*
X89942857Y-102750000D01*
X90014285Y-102607142D01*
X90014285Y-102464285D01*
X89942857Y-102321428D01*
X89871428Y-102250000D01*
X89728571Y-102178571D01*
X89371428Y-102178571D01*
X89157142Y-102250000D01*
X88657142Y-102178571D02*
X88300000Y-103678571D01*
X88014285Y-102607142D01*
X87728571Y-103678571D01*
X87371428Y-102178571D01*
X86942857Y-102178571D02*
X86014285Y-102178571D01*
X86514285Y-102750000D01*
X86300000Y-102750000D01*
X86157142Y-102821428D01*
X86085714Y-102892857D01*
X86014285Y-103035714D01*
X86014285Y-103392857D01*
X86085714Y-103535714D01*
X86157142Y-103607142D01*
X86300000Y-103678571D01*
X86728571Y-103678571D01*
X86871428Y-103607142D01*
X86942857Y-103535714D01*
X85300000Y-103678571D02*
X85014285Y-103678571D01*
X84871428Y-103607142D01*
X84800000Y-103535714D01*
X84657142Y-103321428D01*
X84585714Y-103035714D01*
X84585714Y-102464285D01*
X84657142Y-102321428D01*
X84728571Y-102250000D01*
X84871428Y-102178571D01*
X85157142Y-102178571D01*
X85300000Y-102250000D01*
X85371428Y-102321428D01*
X85442857Y-102464285D01*
X85442857Y-102821428D01*
X85371428Y-102964285D01*
X85300000Y-103035714D01*
X85157142Y-103107142D01*
X84871428Y-103107142D01*
X84728571Y-103035714D01*
X84657142Y-102964285D01*
X84585714Y-102821428D01*
%TO.C,SW35*%
X109064285Y-103607142D02*
X108850000Y-103678571D01*
X108492857Y-103678571D01*
X108350000Y-103607142D01*
X108278571Y-103535714D01*
X108207142Y-103392857D01*
X108207142Y-103250000D01*
X108278571Y-103107142D01*
X108350000Y-103035714D01*
X108492857Y-102964285D01*
X108778571Y-102892857D01*
X108921428Y-102821428D01*
X108992857Y-102750000D01*
X109064285Y-102607142D01*
X109064285Y-102464285D01*
X108992857Y-102321428D01*
X108921428Y-102250000D01*
X108778571Y-102178571D01*
X108421428Y-102178571D01*
X108207142Y-102250000D01*
X107707142Y-102178571D02*
X107350000Y-103678571D01*
X107064285Y-102607142D01*
X106778571Y-103678571D01*
X106421428Y-102178571D01*
X105992857Y-102178571D02*
X105064285Y-102178571D01*
X105564285Y-102750000D01*
X105350000Y-102750000D01*
X105207142Y-102821428D01*
X105135714Y-102892857D01*
X105064285Y-103035714D01*
X105064285Y-103392857D01*
X105135714Y-103535714D01*
X105207142Y-103607142D01*
X105350000Y-103678571D01*
X105778571Y-103678571D01*
X105921428Y-103607142D01*
X105992857Y-103535714D01*
X103707142Y-102178571D02*
X104421428Y-102178571D01*
X104492857Y-102892857D01*
X104421428Y-102821428D01*
X104278571Y-102750000D01*
X103921428Y-102750000D01*
X103778571Y-102821428D01*
X103707142Y-102892857D01*
X103635714Y-103035714D01*
X103635714Y-103392857D01*
X103707142Y-103535714D01*
X103778571Y-103607142D01*
X103921428Y-103678571D01*
X104278571Y-103678571D01*
X104421428Y-103607142D01*
X104492857Y-103535714D01*
%TO.C,SW19*%
X185164285Y-103657142D02*
X184950000Y-103728571D01*
X184592857Y-103728571D01*
X184450000Y-103657142D01*
X184378571Y-103585714D01*
X184307142Y-103442857D01*
X184307142Y-103300000D01*
X184378571Y-103157142D01*
X184450000Y-103085714D01*
X184592857Y-103014285D01*
X184878571Y-102942857D01*
X185021428Y-102871428D01*
X185092857Y-102800000D01*
X185164285Y-102657142D01*
X185164285Y-102514285D01*
X185092857Y-102371428D01*
X185021428Y-102300000D01*
X184878571Y-102228571D01*
X184521428Y-102228571D01*
X184307142Y-102300000D01*
X183807142Y-102228571D02*
X183450000Y-103728571D01*
X183164285Y-102657142D01*
X182878571Y-103728571D01*
X182521428Y-102228571D01*
X181164285Y-103728571D02*
X182021428Y-103728571D01*
X181592857Y-103728571D02*
X181592857Y-102228571D01*
X181735714Y-102442857D01*
X181878571Y-102585714D01*
X182021428Y-102657142D01*
X180450000Y-103728571D02*
X180164285Y-103728571D01*
X180021428Y-103657142D01*
X179950000Y-103585714D01*
X179807142Y-103371428D01*
X179735714Y-103085714D01*
X179735714Y-102514285D01*
X179807142Y-102371428D01*
X179878571Y-102300000D01*
X180021428Y-102228571D01*
X180307142Y-102228571D01*
X180450000Y-102300000D01*
X180521428Y-102371428D01*
X180592857Y-102514285D01*
X180592857Y-102871428D01*
X180521428Y-103014285D01*
X180450000Y-103085714D01*
X180307142Y-103157142D01*
X180021428Y-103157142D01*
X179878571Y-103085714D01*
X179807142Y-103014285D01*
X179735714Y-102871428D01*
%TO.C,SW20*%
X185164285Y-122657142D02*
X184950000Y-122728571D01*
X184592857Y-122728571D01*
X184450000Y-122657142D01*
X184378571Y-122585714D01*
X184307142Y-122442857D01*
X184307142Y-122300000D01*
X184378571Y-122157142D01*
X184450000Y-122085714D01*
X184592857Y-122014285D01*
X184878571Y-121942857D01*
X185021428Y-121871428D01*
X185092857Y-121800000D01*
X185164285Y-121657142D01*
X185164285Y-121514285D01*
X185092857Y-121371428D01*
X185021428Y-121300000D01*
X184878571Y-121228571D01*
X184521428Y-121228571D01*
X184307142Y-121300000D01*
X183807142Y-121228571D02*
X183450000Y-122728571D01*
X183164285Y-121657142D01*
X182878571Y-122728571D01*
X182521428Y-121228571D01*
X182021428Y-121371428D02*
X181950000Y-121300000D01*
X181807142Y-121228571D01*
X181450000Y-121228571D01*
X181307142Y-121300000D01*
X181235714Y-121371428D01*
X181164285Y-121514285D01*
X181164285Y-121657142D01*
X181235714Y-121871428D01*
X182092857Y-122728571D01*
X181164285Y-122728571D01*
X180235714Y-121228571D02*
X180092857Y-121228571D01*
X179950000Y-121300000D01*
X179878571Y-121371428D01*
X179807142Y-121514285D01*
X179735714Y-121800000D01*
X179735714Y-122157142D01*
X179807142Y-122442857D01*
X179878571Y-122585714D01*
X179950000Y-122657142D01*
X180092857Y-122728571D01*
X180235714Y-122728571D01*
X180378571Y-122657142D01*
X180450000Y-122585714D01*
X180521428Y-122442857D01*
X180592857Y-122157142D01*
X180592857Y-121800000D01*
X180521428Y-121514285D01*
X180450000Y-121371428D01*
X180378571Y-121300000D01*
X180235714Y-121228571D01*
%TO.C,SW10*%
X223264285Y-84657142D02*
X223050000Y-84728571D01*
X222692857Y-84728571D01*
X222550000Y-84657142D01*
X222478571Y-84585714D01*
X222407142Y-84442857D01*
X222407142Y-84300000D01*
X222478571Y-84157142D01*
X222550000Y-84085714D01*
X222692857Y-84014285D01*
X222978571Y-83942857D01*
X223121428Y-83871428D01*
X223192857Y-83800000D01*
X223264285Y-83657142D01*
X223264285Y-83514285D01*
X223192857Y-83371428D01*
X223121428Y-83300000D01*
X222978571Y-83228571D01*
X222621428Y-83228571D01*
X222407142Y-83300000D01*
X221907142Y-83228571D02*
X221550000Y-84728571D01*
X221264285Y-83657142D01*
X220978571Y-84728571D01*
X220621428Y-83228571D01*
X219264285Y-84728571D02*
X220121428Y-84728571D01*
X219692857Y-84728571D02*
X219692857Y-83228571D01*
X219835714Y-83442857D01*
X219978571Y-83585714D01*
X220121428Y-83657142D01*
X218335714Y-83228571D02*
X218192857Y-83228571D01*
X218050000Y-83300000D01*
X217978571Y-83371428D01*
X217907142Y-83514285D01*
X217835714Y-83800000D01*
X217835714Y-84157142D01*
X217907142Y-84442857D01*
X217978571Y-84585714D01*
X218050000Y-84657142D01*
X218192857Y-84728571D01*
X218335714Y-84728571D01*
X218478571Y-84657142D01*
X218550000Y-84585714D01*
X218621428Y-84442857D01*
X218692857Y-84157142D01*
X218692857Y-83800000D01*
X218621428Y-83514285D01*
X218550000Y-83371428D01*
X218478571Y-83300000D01*
X218335714Y-83228571D01*
%TO.C,SW5*%
X241600000Y-65657142D02*
X241385714Y-65728571D01*
X241028571Y-65728571D01*
X240885714Y-65657142D01*
X240814285Y-65585714D01*
X240742857Y-65442857D01*
X240742857Y-65300000D01*
X240814285Y-65157142D01*
X240885714Y-65085714D01*
X241028571Y-65014285D01*
X241314285Y-64942857D01*
X241457142Y-64871428D01*
X241528571Y-64800000D01*
X241600000Y-64657142D01*
X241600000Y-64514285D01*
X241528571Y-64371428D01*
X241457142Y-64300000D01*
X241314285Y-64228571D01*
X240957142Y-64228571D01*
X240742857Y-64300000D01*
X240242857Y-64228571D02*
X239885714Y-65728571D01*
X239600000Y-64657142D01*
X239314285Y-65728571D01*
X238957142Y-64228571D01*
X237671428Y-64228571D02*
X238385714Y-64228571D01*
X238457142Y-64942857D01*
X238385714Y-64871428D01*
X238242857Y-64800000D01*
X237885714Y-64800000D01*
X237742857Y-64871428D01*
X237671428Y-64942857D01*
X237600000Y-65085714D01*
X237600000Y-65442857D01*
X237671428Y-65585714D01*
X237742857Y-65657142D01*
X237885714Y-65728571D01*
X238242857Y-65728571D01*
X238385714Y-65657142D01*
X238457142Y-65585714D01*
%TO.C,SW4*%
X260650000Y-122657142D02*
X260435714Y-122728571D01*
X260078571Y-122728571D01*
X259935714Y-122657142D01*
X259864285Y-122585714D01*
X259792857Y-122442857D01*
X259792857Y-122300000D01*
X259864285Y-122157142D01*
X259935714Y-122085714D01*
X260078571Y-122014285D01*
X260364285Y-121942857D01*
X260507142Y-121871428D01*
X260578571Y-121800000D01*
X260650000Y-121657142D01*
X260650000Y-121514285D01*
X260578571Y-121371428D01*
X260507142Y-121300000D01*
X260364285Y-121228571D01*
X260007142Y-121228571D01*
X259792857Y-121300000D01*
X259292857Y-121228571D02*
X258935714Y-122728571D01*
X258650000Y-121657142D01*
X258364285Y-122728571D01*
X258007142Y-121228571D01*
X256792857Y-121728571D02*
X256792857Y-122728571D01*
X257150000Y-121157142D02*
X257507142Y-122228571D01*
X256578571Y-122228571D01*
%TO.C,SW36*%
X109064285Y-122607142D02*
X108850000Y-122678571D01*
X108492857Y-122678571D01*
X108350000Y-122607142D01*
X108278571Y-122535714D01*
X108207142Y-122392857D01*
X108207142Y-122250000D01*
X108278571Y-122107142D01*
X108350000Y-122035714D01*
X108492857Y-121964285D01*
X108778571Y-121892857D01*
X108921428Y-121821428D01*
X108992857Y-121750000D01*
X109064285Y-121607142D01*
X109064285Y-121464285D01*
X108992857Y-121321428D01*
X108921428Y-121250000D01*
X108778571Y-121178571D01*
X108421428Y-121178571D01*
X108207142Y-121250000D01*
X107707142Y-121178571D02*
X107350000Y-122678571D01*
X107064285Y-121607142D01*
X106778571Y-122678571D01*
X106421428Y-121178571D01*
X105992857Y-121178571D02*
X105064285Y-121178571D01*
X105564285Y-121750000D01*
X105350000Y-121750000D01*
X105207142Y-121821428D01*
X105135714Y-121892857D01*
X105064285Y-122035714D01*
X105064285Y-122392857D01*
X105135714Y-122535714D01*
X105207142Y-122607142D01*
X105350000Y-122678571D01*
X105778571Y-122678571D01*
X105921428Y-122607142D01*
X105992857Y-122535714D01*
X103778571Y-121178571D02*
X104064285Y-121178571D01*
X104207142Y-121250000D01*
X104278571Y-121321428D01*
X104421428Y-121535714D01*
X104492857Y-121821428D01*
X104492857Y-122392857D01*
X104421428Y-122535714D01*
X104350000Y-122607142D01*
X104207142Y-122678571D01*
X103921428Y-122678571D01*
X103778571Y-122607142D01*
X103707142Y-122535714D01*
X103635714Y-122392857D01*
X103635714Y-122035714D01*
X103707142Y-121892857D01*
X103778571Y-121821428D01*
X103921428Y-121750000D01*
X104207142Y-121750000D01*
X104350000Y-121821428D01*
X104421428Y-121892857D01*
X104492857Y-122035714D01*
%TO.C,SW38*%
X90014285Y-84607142D02*
X89800000Y-84678571D01*
X89442857Y-84678571D01*
X89300000Y-84607142D01*
X89228571Y-84535714D01*
X89157142Y-84392857D01*
X89157142Y-84250000D01*
X89228571Y-84107142D01*
X89300000Y-84035714D01*
X89442857Y-83964285D01*
X89728571Y-83892857D01*
X89871428Y-83821428D01*
X89942857Y-83750000D01*
X90014285Y-83607142D01*
X90014285Y-83464285D01*
X89942857Y-83321428D01*
X89871428Y-83250000D01*
X89728571Y-83178571D01*
X89371428Y-83178571D01*
X89157142Y-83250000D01*
X88657142Y-83178571D02*
X88300000Y-84678571D01*
X88014285Y-83607142D01*
X87728571Y-84678571D01*
X87371428Y-83178571D01*
X86942857Y-83178571D02*
X86014285Y-83178571D01*
X86514285Y-83750000D01*
X86300000Y-83750000D01*
X86157142Y-83821428D01*
X86085714Y-83892857D01*
X86014285Y-84035714D01*
X86014285Y-84392857D01*
X86085714Y-84535714D01*
X86157142Y-84607142D01*
X86300000Y-84678571D01*
X86728571Y-84678571D01*
X86871428Y-84607142D01*
X86942857Y-84535714D01*
X85157142Y-83821428D02*
X85300000Y-83750000D01*
X85371428Y-83678571D01*
X85442857Y-83535714D01*
X85442857Y-83464285D01*
X85371428Y-83321428D01*
X85300000Y-83250000D01*
X85157142Y-83178571D01*
X84871428Y-83178571D01*
X84728571Y-83250000D01*
X84657142Y-83321428D01*
X84585714Y-83464285D01*
X84585714Y-83535714D01*
X84657142Y-83678571D01*
X84728571Y-83750000D01*
X84871428Y-83821428D01*
X85157142Y-83821428D01*
X85300000Y-83892857D01*
X85371428Y-83964285D01*
X85442857Y-84107142D01*
X85442857Y-84392857D01*
X85371428Y-84535714D01*
X85300000Y-84607142D01*
X85157142Y-84678571D01*
X84871428Y-84678571D01*
X84728571Y-84607142D01*
X84657142Y-84535714D01*
X84585714Y-84392857D01*
X84585714Y-84107142D01*
X84657142Y-83964285D01*
X84728571Y-83892857D01*
X84871428Y-83821428D01*
%TO.C,SW48*%
X51914285Y-122607142D02*
X51700000Y-122678571D01*
X51342857Y-122678571D01*
X51200000Y-122607142D01*
X51128571Y-122535714D01*
X51057142Y-122392857D01*
X51057142Y-122250000D01*
X51128571Y-122107142D01*
X51200000Y-122035714D01*
X51342857Y-121964285D01*
X51628571Y-121892857D01*
X51771428Y-121821428D01*
X51842857Y-121750000D01*
X51914285Y-121607142D01*
X51914285Y-121464285D01*
X51842857Y-121321428D01*
X51771428Y-121250000D01*
X51628571Y-121178571D01*
X51271428Y-121178571D01*
X51057142Y-121250000D01*
X50557142Y-121178571D02*
X50200000Y-122678571D01*
X49914285Y-121607142D01*
X49628571Y-122678571D01*
X49271428Y-121178571D01*
X48057142Y-121678571D02*
X48057142Y-122678571D01*
X48414285Y-121107142D02*
X48771428Y-122178571D01*
X47842857Y-122178571D01*
X47057142Y-121821428D02*
X47200000Y-121750000D01*
X47271428Y-121678571D01*
X47342857Y-121535714D01*
X47342857Y-121464285D01*
X47271428Y-121321428D01*
X47200000Y-121250000D01*
X47057142Y-121178571D01*
X46771428Y-121178571D01*
X46628571Y-121250000D01*
X46557142Y-121321428D01*
X46485714Y-121464285D01*
X46485714Y-121535714D01*
X46557142Y-121678571D01*
X46628571Y-121750000D01*
X46771428Y-121821428D01*
X47057142Y-121821428D01*
X47200000Y-121892857D01*
X47271428Y-121964285D01*
X47342857Y-122107142D01*
X47342857Y-122392857D01*
X47271428Y-122535714D01*
X47200000Y-122607142D01*
X47057142Y-122678571D01*
X46771428Y-122678571D01*
X46628571Y-122607142D01*
X46557142Y-122535714D01*
X46485714Y-122392857D01*
X46485714Y-122107142D01*
X46557142Y-121964285D01*
X46628571Y-121892857D01*
X46771428Y-121821428D01*
%TO.C,SW33*%
X109064285Y-65607142D02*
X108850000Y-65678571D01*
X108492857Y-65678571D01*
X108350000Y-65607142D01*
X108278571Y-65535714D01*
X108207142Y-65392857D01*
X108207142Y-65250000D01*
X108278571Y-65107142D01*
X108350000Y-65035714D01*
X108492857Y-64964285D01*
X108778571Y-64892857D01*
X108921428Y-64821428D01*
X108992857Y-64750000D01*
X109064285Y-64607142D01*
X109064285Y-64464285D01*
X108992857Y-64321428D01*
X108921428Y-64250000D01*
X108778571Y-64178571D01*
X108421428Y-64178571D01*
X108207142Y-64250000D01*
X107707142Y-64178571D02*
X107350000Y-65678571D01*
X107064285Y-64607142D01*
X106778571Y-65678571D01*
X106421428Y-64178571D01*
X105992857Y-64178571D02*
X105064285Y-64178571D01*
X105564285Y-64750000D01*
X105350000Y-64750000D01*
X105207142Y-64821428D01*
X105135714Y-64892857D01*
X105064285Y-65035714D01*
X105064285Y-65392857D01*
X105135714Y-65535714D01*
X105207142Y-65607142D01*
X105350000Y-65678571D01*
X105778571Y-65678571D01*
X105921428Y-65607142D01*
X105992857Y-65535714D01*
X104564285Y-64178571D02*
X103635714Y-64178571D01*
X104135714Y-64750000D01*
X103921428Y-64750000D01*
X103778571Y-64821428D01*
X103707142Y-64892857D01*
X103635714Y-65035714D01*
X103635714Y-65392857D01*
X103707142Y-65535714D01*
X103778571Y-65607142D01*
X103921428Y-65678571D01*
X104350000Y-65678571D01*
X104492857Y-65607142D01*
X104564285Y-65535714D01*
%TO.C,SW23*%
X166114285Y-103657142D02*
X165900000Y-103728571D01*
X165542857Y-103728571D01*
X165400000Y-103657142D01*
X165328571Y-103585714D01*
X165257142Y-103442857D01*
X165257142Y-103300000D01*
X165328571Y-103157142D01*
X165400000Y-103085714D01*
X165542857Y-103014285D01*
X165828571Y-102942857D01*
X165971428Y-102871428D01*
X166042857Y-102800000D01*
X166114285Y-102657142D01*
X166114285Y-102514285D01*
X166042857Y-102371428D01*
X165971428Y-102300000D01*
X165828571Y-102228571D01*
X165471428Y-102228571D01*
X165257142Y-102300000D01*
X164757142Y-102228571D02*
X164400000Y-103728571D01*
X164114285Y-102657142D01*
X163828571Y-103728571D01*
X163471428Y-102228571D01*
X162971428Y-102371428D02*
X162900000Y-102300000D01*
X162757142Y-102228571D01*
X162400000Y-102228571D01*
X162257142Y-102300000D01*
X162185714Y-102371428D01*
X162114285Y-102514285D01*
X162114285Y-102657142D01*
X162185714Y-102871428D01*
X163042857Y-103728571D01*
X162114285Y-103728571D01*
X161614285Y-102228571D02*
X160685714Y-102228571D01*
X161185714Y-102800000D01*
X160971428Y-102800000D01*
X160828571Y-102871428D01*
X160757142Y-102942857D01*
X160685714Y-103085714D01*
X160685714Y-103442857D01*
X160757142Y-103585714D01*
X160828571Y-103657142D01*
X160971428Y-103728571D01*
X161400000Y-103728571D01*
X161542857Y-103657142D01*
X161614285Y-103585714D01*
%TO.C,SW21*%
X166114285Y-65657142D02*
X165900000Y-65728571D01*
X165542857Y-65728571D01*
X165400000Y-65657142D01*
X165328571Y-65585714D01*
X165257142Y-65442857D01*
X165257142Y-65300000D01*
X165328571Y-65157142D01*
X165400000Y-65085714D01*
X165542857Y-65014285D01*
X165828571Y-64942857D01*
X165971428Y-64871428D01*
X166042857Y-64800000D01*
X166114285Y-64657142D01*
X166114285Y-64514285D01*
X166042857Y-64371428D01*
X165971428Y-64300000D01*
X165828571Y-64228571D01*
X165471428Y-64228571D01*
X165257142Y-64300000D01*
X164757142Y-64228571D02*
X164400000Y-65728571D01*
X164114285Y-64657142D01*
X163828571Y-65728571D01*
X163471428Y-64228571D01*
X162971428Y-64371428D02*
X162900000Y-64300000D01*
X162757142Y-64228571D01*
X162400000Y-64228571D01*
X162257142Y-64300000D01*
X162185714Y-64371428D01*
X162114285Y-64514285D01*
X162114285Y-64657142D01*
X162185714Y-64871428D01*
X163042857Y-65728571D01*
X162114285Y-65728571D01*
X160685714Y-65728571D02*
X161542857Y-65728571D01*
X161114285Y-65728571D02*
X161114285Y-64228571D01*
X161257142Y-64442857D01*
X161400000Y-64585714D01*
X161542857Y-64657142D01*
%TO.C,SW18*%
X185164285Y-84657142D02*
X184950000Y-84728571D01*
X184592857Y-84728571D01*
X184450000Y-84657142D01*
X184378571Y-84585714D01*
X184307142Y-84442857D01*
X184307142Y-84300000D01*
X184378571Y-84157142D01*
X184450000Y-84085714D01*
X184592857Y-84014285D01*
X184878571Y-83942857D01*
X185021428Y-83871428D01*
X185092857Y-83800000D01*
X185164285Y-83657142D01*
X185164285Y-83514285D01*
X185092857Y-83371428D01*
X185021428Y-83300000D01*
X184878571Y-83228571D01*
X184521428Y-83228571D01*
X184307142Y-83300000D01*
X183807142Y-83228571D02*
X183450000Y-84728571D01*
X183164285Y-83657142D01*
X182878571Y-84728571D01*
X182521428Y-83228571D01*
X181164285Y-84728571D02*
X182021428Y-84728571D01*
X181592857Y-84728571D02*
X181592857Y-83228571D01*
X181735714Y-83442857D01*
X181878571Y-83585714D01*
X182021428Y-83657142D01*
X180307142Y-83871428D02*
X180450000Y-83800000D01*
X180521428Y-83728571D01*
X180592857Y-83585714D01*
X180592857Y-83514285D01*
X180521428Y-83371428D01*
X180450000Y-83300000D01*
X180307142Y-83228571D01*
X180021428Y-83228571D01*
X179878571Y-83300000D01*
X179807142Y-83371428D01*
X179735714Y-83514285D01*
X179735714Y-83585714D01*
X179807142Y-83728571D01*
X179878571Y-83800000D01*
X180021428Y-83871428D01*
X180307142Y-83871428D01*
X180450000Y-83942857D01*
X180521428Y-84014285D01*
X180592857Y-84157142D01*
X180592857Y-84442857D01*
X180521428Y-84585714D01*
X180450000Y-84657142D01*
X180307142Y-84728571D01*
X180021428Y-84728571D01*
X179878571Y-84657142D01*
X179807142Y-84585714D01*
X179735714Y-84442857D01*
X179735714Y-84157142D01*
X179807142Y-84014285D01*
X179878571Y-83942857D01*
X180021428Y-83871428D01*
%TO.C,SW2*%
X260650000Y-84657142D02*
X260435714Y-84728571D01*
X260078571Y-84728571D01*
X259935714Y-84657142D01*
X259864285Y-84585714D01*
X259792857Y-84442857D01*
X259792857Y-84300000D01*
X259864285Y-84157142D01*
X259935714Y-84085714D01*
X260078571Y-84014285D01*
X260364285Y-83942857D01*
X260507142Y-83871428D01*
X260578571Y-83800000D01*
X260650000Y-83657142D01*
X260650000Y-83514285D01*
X260578571Y-83371428D01*
X260507142Y-83300000D01*
X260364285Y-83228571D01*
X260007142Y-83228571D01*
X259792857Y-83300000D01*
X259292857Y-83228571D02*
X258935714Y-84728571D01*
X258650000Y-83657142D01*
X258364285Y-84728571D01*
X258007142Y-83228571D01*
X257507142Y-83371428D02*
X257435714Y-83300000D01*
X257292857Y-83228571D01*
X256935714Y-83228571D01*
X256792857Y-83300000D01*
X256721428Y-83371428D01*
X256650000Y-83514285D01*
X256650000Y-83657142D01*
X256721428Y-83871428D01*
X257578571Y-84728571D01*
X256650000Y-84728571D01*
%TO.C,SW9*%
X222600000Y-65657142D02*
X222385714Y-65728571D01*
X222028571Y-65728571D01*
X221885714Y-65657142D01*
X221814285Y-65585714D01*
X221742857Y-65442857D01*
X221742857Y-65300000D01*
X221814285Y-65157142D01*
X221885714Y-65085714D01*
X222028571Y-65014285D01*
X222314285Y-64942857D01*
X222457142Y-64871428D01*
X222528571Y-64800000D01*
X222600000Y-64657142D01*
X222600000Y-64514285D01*
X222528571Y-64371428D01*
X222457142Y-64300000D01*
X222314285Y-64228571D01*
X221957142Y-64228571D01*
X221742857Y-64300000D01*
X221242857Y-64228571D02*
X220885714Y-65728571D01*
X220600000Y-64657142D01*
X220314285Y-65728571D01*
X219957142Y-64228571D01*
X219314285Y-65728571D02*
X219028571Y-65728571D01*
X218885714Y-65657142D01*
X218814285Y-65585714D01*
X218671428Y-65371428D01*
X218600000Y-65085714D01*
X218600000Y-64514285D01*
X218671428Y-64371428D01*
X218742857Y-64300000D01*
X218885714Y-64228571D01*
X219171428Y-64228571D01*
X219314285Y-64300000D01*
X219385714Y-64371428D01*
X219457142Y-64514285D01*
X219457142Y-64871428D01*
X219385714Y-65014285D01*
X219314285Y-65085714D01*
X219171428Y-65157142D01*
X218885714Y-65157142D01*
X218742857Y-65085714D01*
X218671428Y-65014285D01*
X218600000Y-64871428D01*
%TO.C,SW12*%
X223264285Y-122657142D02*
X223050000Y-122728571D01*
X222692857Y-122728571D01*
X222550000Y-122657142D01*
X222478571Y-122585714D01*
X222407142Y-122442857D01*
X222407142Y-122300000D01*
X222478571Y-122157142D01*
X222550000Y-122085714D01*
X222692857Y-122014285D01*
X222978571Y-121942857D01*
X223121428Y-121871428D01*
X223192857Y-121800000D01*
X223264285Y-121657142D01*
X223264285Y-121514285D01*
X223192857Y-121371428D01*
X223121428Y-121300000D01*
X222978571Y-121228571D01*
X222621428Y-121228571D01*
X222407142Y-121300000D01*
X221907142Y-121228571D02*
X221550000Y-122728571D01*
X221264285Y-121657142D01*
X220978571Y-122728571D01*
X220621428Y-121228571D01*
X219264285Y-122728571D02*
X220121428Y-122728571D01*
X219692857Y-122728571D02*
X219692857Y-121228571D01*
X219835714Y-121442857D01*
X219978571Y-121585714D01*
X220121428Y-121657142D01*
X218692857Y-121371428D02*
X218621428Y-121300000D01*
X218478571Y-121228571D01*
X218121428Y-121228571D01*
X217978571Y-121300000D01*
X217907142Y-121371428D01*
X217835714Y-121514285D01*
X217835714Y-121657142D01*
X217907142Y-121871428D01*
X218764285Y-122728571D01*
X217835714Y-122728571D01*
%TO.C,SW32*%
X128064285Y-122607142D02*
X127850000Y-122678571D01*
X127492857Y-122678571D01*
X127350000Y-122607142D01*
X127278571Y-122535714D01*
X127207142Y-122392857D01*
X127207142Y-122250000D01*
X127278571Y-122107142D01*
X127350000Y-122035714D01*
X127492857Y-121964285D01*
X127778571Y-121892857D01*
X127921428Y-121821428D01*
X127992857Y-121750000D01*
X128064285Y-121607142D01*
X128064285Y-121464285D01*
X127992857Y-121321428D01*
X127921428Y-121250000D01*
X127778571Y-121178571D01*
X127421428Y-121178571D01*
X127207142Y-121250000D01*
X126707142Y-121178571D02*
X126350000Y-122678571D01*
X126064285Y-121607142D01*
X125778571Y-122678571D01*
X125421428Y-121178571D01*
X124992857Y-121178571D02*
X124064285Y-121178571D01*
X124564285Y-121750000D01*
X124350000Y-121750000D01*
X124207142Y-121821428D01*
X124135714Y-121892857D01*
X124064285Y-122035714D01*
X124064285Y-122392857D01*
X124135714Y-122535714D01*
X124207142Y-122607142D01*
X124350000Y-122678571D01*
X124778571Y-122678571D01*
X124921428Y-122607142D01*
X124992857Y-122535714D01*
X123492857Y-121321428D02*
X123421428Y-121250000D01*
X123278571Y-121178571D01*
X122921428Y-121178571D01*
X122778571Y-121250000D01*
X122707142Y-121321428D01*
X122635714Y-121464285D01*
X122635714Y-121607142D01*
X122707142Y-121821428D01*
X123564285Y-122678571D01*
X122635714Y-122678571D01*
%TO.C,SW47*%
X51914285Y-103607142D02*
X51700000Y-103678571D01*
X51342857Y-103678571D01*
X51200000Y-103607142D01*
X51128571Y-103535714D01*
X51057142Y-103392857D01*
X51057142Y-103250000D01*
X51128571Y-103107142D01*
X51200000Y-103035714D01*
X51342857Y-102964285D01*
X51628571Y-102892857D01*
X51771428Y-102821428D01*
X51842857Y-102750000D01*
X51914285Y-102607142D01*
X51914285Y-102464285D01*
X51842857Y-102321428D01*
X51771428Y-102250000D01*
X51628571Y-102178571D01*
X51271428Y-102178571D01*
X51057142Y-102250000D01*
X50557142Y-102178571D02*
X50200000Y-103678571D01*
X49914285Y-102607142D01*
X49628571Y-103678571D01*
X49271428Y-102178571D01*
X48057142Y-102678571D02*
X48057142Y-103678571D01*
X48414285Y-102107142D02*
X48771428Y-103178571D01*
X47842857Y-103178571D01*
X47414285Y-102178571D02*
X46414285Y-102178571D01*
X47057142Y-103678571D01*
%TO.C,SW34*%
X109064285Y-84607142D02*
X108850000Y-84678571D01*
X108492857Y-84678571D01*
X108350000Y-84607142D01*
X108278571Y-84535714D01*
X108207142Y-84392857D01*
X108207142Y-84250000D01*
X108278571Y-84107142D01*
X108350000Y-84035714D01*
X108492857Y-83964285D01*
X108778571Y-83892857D01*
X108921428Y-83821428D01*
X108992857Y-83750000D01*
X109064285Y-83607142D01*
X109064285Y-83464285D01*
X108992857Y-83321428D01*
X108921428Y-83250000D01*
X108778571Y-83178571D01*
X108421428Y-83178571D01*
X108207142Y-83250000D01*
X107707142Y-83178571D02*
X107350000Y-84678571D01*
X107064285Y-83607142D01*
X106778571Y-84678571D01*
X106421428Y-83178571D01*
X105992857Y-83178571D02*
X105064285Y-83178571D01*
X105564285Y-83750000D01*
X105350000Y-83750000D01*
X105207142Y-83821428D01*
X105135714Y-83892857D01*
X105064285Y-84035714D01*
X105064285Y-84392857D01*
X105135714Y-84535714D01*
X105207142Y-84607142D01*
X105350000Y-84678571D01*
X105778571Y-84678571D01*
X105921428Y-84607142D01*
X105992857Y-84535714D01*
X103778571Y-83678571D02*
X103778571Y-84678571D01*
X104135714Y-83107142D02*
X104492857Y-84178571D01*
X103564285Y-84178571D01*
%TO.C,SW41*%
X70964285Y-65607142D02*
X70750000Y-65678571D01*
X70392857Y-65678571D01*
X70250000Y-65607142D01*
X70178571Y-65535714D01*
X70107142Y-65392857D01*
X70107142Y-65250000D01*
X70178571Y-65107142D01*
X70250000Y-65035714D01*
X70392857Y-64964285D01*
X70678571Y-64892857D01*
X70821428Y-64821428D01*
X70892857Y-64750000D01*
X70964285Y-64607142D01*
X70964285Y-64464285D01*
X70892857Y-64321428D01*
X70821428Y-64250000D01*
X70678571Y-64178571D01*
X70321428Y-64178571D01*
X70107142Y-64250000D01*
X69607142Y-64178571D02*
X69250000Y-65678571D01*
X68964285Y-64607142D01*
X68678571Y-65678571D01*
X68321428Y-64178571D01*
X67107142Y-64678571D02*
X67107142Y-65678571D01*
X67464285Y-64107142D02*
X67821428Y-65178571D01*
X66892857Y-65178571D01*
X65535714Y-65678571D02*
X66392857Y-65678571D01*
X65964285Y-65678571D02*
X65964285Y-64178571D01*
X66107142Y-64392857D01*
X66250000Y-64535714D01*
X66392857Y-64607142D01*
%TO.C,SW15*%
X204214285Y-103657142D02*
X204000000Y-103728571D01*
X203642857Y-103728571D01*
X203500000Y-103657142D01*
X203428571Y-103585714D01*
X203357142Y-103442857D01*
X203357142Y-103300000D01*
X203428571Y-103157142D01*
X203500000Y-103085714D01*
X203642857Y-103014285D01*
X203928571Y-102942857D01*
X204071428Y-102871428D01*
X204142857Y-102800000D01*
X204214285Y-102657142D01*
X204214285Y-102514285D01*
X204142857Y-102371428D01*
X204071428Y-102300000D01*
X203928571Y-102228571D01*
X203571428Y-102228571D01*
X203357142Y-102300000D01*
X202857142Y-102228571D02*
X202500000Y-103728571D01*
X202214285Y-102657142D01*
X201928571Y-103728571D01*
X201571428Y-102228571D01*
X200214285Y-103728571D02*
X201071428Y-103728571D01*
X200642857Y-103728571D02*
X200642857Y-102228571D01*
X200785714Y-102442857D01*
X200928571Y-102585714D01*
X201071428Y-102657142D01*
X198857142Y-102228571D02*
X199571428Y-102228571D01*
X199642857Y-102942857D01*
X199571428Y-102871428D01*
X199428571Y-102800000D01*
X199071428Y-102800000D01*
X198928571Y-102871428D01*
X198857142Y-102942857D01*
X198785714Y-103085714D01*
X198785714Y-103442857D01*
X198857142Y-103585714D01*
X198928571Y-103657142D01*
X199071428Y-103728571D01*
X199428571Y-103728571D01*
X199571428Y-103657142D01*
X199642857Y-103585714D01*
%TO.C,SW26*%
X147164285Y-84607142D02*
X146950000Y-84678571D01*
X146592857Y-84678571D01*
X146450000Y-84607142D01*
X146378571Y-84535714D01*
X146307142Y-84392857D01*
X146307142Y-84250000D01*
X146378571Y-84107142D01*
X146450000Y-84035714D01*
X146592857Y-83964285D01*
X146878571Y-83892857D01*
X147021428Y-83821428D01*
X147092857Y-83750000D01*
X147164285Y-83607142D01*
X147164285Y-83464285D01*
X147092857Y-83321428D01*
X147021428Y-83250000D01*
X146878571Y-83178571D01*
X146521428Y-83178571D01*
X146307142Y-83250000D01*
X145807142Y-83178571D02*
X145450000Y-84678571D01*
X145164285Y-83607142D01*
X144878571Y-84678571D01*
X144521428Y-83178571D01*
X144021428Y-83321428D02*
X143950000Y-83250000D01*
X143807142Y-83178571D01*
X143450000Y-83178571D01*
X143307142Y-83250000D01*
X143235714Y-83321428D01*
X143164285Y-83464285D01*
X143164285Y-83607142D01*
X143235714Y-83821428D01*
X144092857Y-84678571D01*
X143164285Y-84678571D01*
X141878571Y-83178571D02*
X142164285Y-83178571D01*
X142307142Y-83250000D01*
X142378571Y-83321428D01*
X142521428Y-83535714D01*
X142592857Y-83821428D01*
X142592857Y-84392857D01*
X142521428Y-84535714D01*
X142450000Y-84607142D01*
X142307142Y-84678571D01*
X142021428Y-84678571D01*
X141878571Y-84607142D01*
X141807142Y-84535714D01*
X141735714Y-84392857D01*
X141735714Y-84035714D01*
X141807142Y-83892857D01*
X141878571Y-83821428D01*
X142021428Y-83750000D01*
X142307142Y-83750000D01*
X142450000Y-83821428D01*
X142521428Y-83892857D01*
X142592857Y-84035714D01*
%TO.C,SW31*%
X128064285Y-103607142D02*
X127850000Y-103678571D01*
X127492857Y-103678571D01*
X127350000Y-103607142D01*
X127278571Y-103535714D01*
X127207142Y-103392857D01*
X127207142Y-103250000D01*
X127278571Y-103107142D01*
X127350000Y-103035714D01*
X127492857Y-102964285D01*
X127778571Y-102892857D01*
X127921428Y-102821428D01*
X127992857Y-102750000D01*
X128064285Y-102607142D01*
X128064285Y-102464285D01*
X127992857Y-102321428D01*
X127921428Y-102250000D01*
X127778571Y-102178571D01*
X127421428Y-102178571D01*
X127207142Y-102250000D01*
X126707142Y-102178571D02*
X126350000Y-103678571D01*
X126064285Y-102607142D01*
X125778571Y-103678571D01*
X125421428Y-102178571D01*
X124992857Y-102178571D02*
X124064285Y-102178571D01*
X124564285Y-102750000D01*
X124350000Y-102750000D01*
X124207142Y-102821428D01*
X124135714Y-102892857D01*
X124064285Y-103035714D01*
X124064285Y-103392857D01*
X124135714Y-103535714D01*
X124207142Y-103607142D01*
X124350000Y-103678571D01*
X124778571Y-103678571D01*
X124921428Y-103607142D01*
X124992857Y-103535714D01*
X122635714Y-103678571D02*
X123492857Y-103678571D01*
X123064285Y-103678571D02*
X123064285Y-102178571D01*
X123207142Y-102392857D01*
X123350000Y-102535714D01*
X123492857Y-102607142D01*
%TO.C,SW27*%
X147164285Y-103607142D02*
X146950000Y-103678571D01*
X146592857Y-103678571D01*
X146450000Y-103607142D01*
X146378571Y-103535714D01*
X146307142Y-103392857D01*
X146307142Y-103250000D01*
X146378571Y-103107142D01*
X146450000Y-103035714D01*
X146592857Y-102964285D01*
X146878571Y-102892857D01*
X147021428Y-102821428D01*
X147092857Y-102750000D01*
X147164285Y-102607142D01*
X147164285Y-102464285D01*
X147092857Y-102321428D01*
X147021428Y-102250000D01*
X146878571Y-102178571D01*
X146521428Y-102178571D01*
X146307142Y-102250000D01*
X145807142Y-102178571D02*
X145450000Y-103678571D01*
X145164285Y-102607142D01*
X144878571Y-103678571D01*
X144521428Y-102178571D01*
X144021428Y-102321428D02*
X143950000Y-102250000D01*
X143807142Y-102178571D01*
X143450000Y-102178571D01*
X143307142Y-102250000D01*
X143235714Y-102321428D01*
X143164285Y-102464285D01*
X143164285Y-102607142D01*
X143235714Y-102821428D01*
X144092857Y-103678571D01*
X143164285Y-103678571D01*
X142664285Y-102178571D02*
X141664285Y-102178571D01*
X142307142Y-103678571D01*
%TO.C,SW6*%
X241600000Y-84657142D02*
X241385714Y-84728571D01*
X241028571Y-84728571D01*
X240885714Y-84657142D01*
X240814285Y-84585714D01*
X240742857Y-84442857D01*
X240742857Y-84300000D01*
X240814285Y-84157142D01*
X240885714Y-84085714D01*
X241028571Y-84014285D01*
X241314285Y-83942857D01*
X241457142Y-83871428D01*
X241528571Y-83800000D01*
X241600000Y-83657142D01*
X241600000Y-83514285D01*
X241528571Y-83371428D01*
X241457142Y-83300000D01*
X241314285Y-83228571D01*
X240957142Y-83228571D01*
X240742857Y-83300000D01*
X240242857Y-83228571D02*
X239885714Y-84728571D01*
X239600000Y-83657142D01*
X239314285Y-84728571D01*
X238957142Y-83228571D01*
X237742857Y-83228571D02*
X238028571Y-83228571D01*
X238171428Y-83300000D01*
X238242857Y-83371428D01*
X238385714Y-83585714D01*
X238457142Y-83871428D01*
X238457142Y-84442857D01*
X238385714Y-84585714D01*
X238314285Y-84657142D01*
X238171428Y-84728571D01*
X237885714Y-84728571D01*
X237742857Y-84657142D01*
X237671428Y-84585714D01*
X237600000Y-84442857D01*
X237600000Y-84085714D01*
X237671428Y-83942857D01*
X237742857Y-83871428D01*
X237885714Y-83800000D01*
X238171428Y-83800000D01*
X238314285Y-83871428D01*
X238385714Y-83942857D01*
X238457142Y-84085714D01*
%TO.C,SW28*%
X147164285Y-122607142D02*
X146950000Y-122678571D01*
X146592857Y-122678571D01*
X146450000Y-122607142D01*
X146378571Y-122535714D01*
X146307142Y-122392857D01*
X146307142Y-122250000D01*
X146378571Y-122107142D01*
X146450000Y-122035714D01*
X146592857Y-121964285D01*
X146878571Y-121892857D01*
X147021428Y-121821428D01*
X147092857Y-121750000D01*
X147164285Y-121607142D01*
X147164285Y-121464285D01*
X147092857Y-121321428D01*
X147021428Y-121250000D01*
X146878571Y-121178571D01*
X146521428Y-121178571D01*
X146307142Y-121250000D01*
X145807142Y-121178571D02*
X145450000Y-122678571D01*
X145164285Y-121607142D01*
X144878571Y-122678571D01*
X144521428Y-121178571D01*
X144021428Y-121321428D02*
X143950000Y-121250000D01*
X143807142Y-121178571D01*
X143450000Y-121178571D01*
X143307142Y-121250000D01*
X143235714Y-121321428D01*
X143164285Y-121464285D01*
X143164285Y-121607142D01*
X143235714Y-121821428D01*
X144092857Y-122678571D01*
X143164285Y-122678571D01*
X142307142Y-121821428D02*
X142450000Y-121750000D01*
X142521428Y-121678571D01*
X142592857Y-121535714D01*
X142592857Y-121464285D01*
X142521428Y-121321428D01*
X142450000Y-121250000D01*
X142307142Y-121178571D01*
X142021428Y-121178571D01*
X141878571Y-121250000D01*
X141807142Y-121321428D01*
X141735714Y-121464285D01*
X141735714Y-121535714D01*
X141807142Y-121678571D01*
X141878571Y-121750000D01*
X142021428Y-121821428D01*
X142307142Y-121821428D01*
X142450000Y-121892857D01*
X142521428Y-121964285D01*
X142592857Y-122107142D01*
X142592857Y-122392857D01*
X142521428Y-122535714D01*
X142450000Y-122607142D01*
X142307142Y-122678571D01*
X142021428Y-122678571D01*
X141878571Y-122607142D01*
X141807142Y-122535714D01*
X141735714Y-122392857D01*
X141735714Y-122107142D01*
X141807142Y-121964285D01*
X141878571Y-121892857D01*
X142021428Y-121821428D01*
%TO.C,SW25*%
X147114285Y-65607142D02*
X146900000Y-65678571D01*
X146542857Y-65678571D01*
X146400000Y-65607142D01*
X146328571Y-65535714D01*
X146257142Y-65392857D01*
X146257142Y-65250000D01*
X146328571Y-65107142D01*
X146400000Y-65035714D01*
X146542857Y-64964285D01*
X146828571Y-64892857D01*
X146971428Y-64821428D01*
X147042857Y-64750000D01*
X147114285Y-64607142D01*
X147114285Y-64464285D01*
X147042857Y-64321428D01*
X146971428Y-64250000D01*
X146828571Y-64178571D01*
X146471428Y-64178571D01*
X146257142Y-64250000D01*
X145757142Y-64178571D02*
X145400000Y-65678571D01*
X145114285Y-64607142D01*
X144828571Y-65678571D01*
X144471428Y-64178571D01*
X143971428Y-64321428D02*
X143900000Y-64250000D01*
X143757142Y-64178571D01*
X143400000Y-64178571D01*
X143257142Y-64250000D01*
X143185714Y-64321428D01*
X143114285Y-64464285D01*
X143114285Y-64607142D01*
X143185714Y-64821428D01*
X144042857Y-65678571D01*
X143114285Y-65678571D01*
X141757142Y-64178571D02*
X142471428Y-64178571D01*
X142542857Y-64892857D01*
X142471428Y-64821428D01*
X142328571Y-64750000D01*
X141971428Y-64750000D01*
X141828571Y-64821428D01*
X141757142Y-64892857D01*
X141685714Y-65035714D01*
X141685714Y-65392857D01*
X141757142Y-65535714D01*
X141828571Y-65607142D01*
X141971428Y-65678571D01*
X142328571Y-65678571D01*
X142471428Y-65607142D01*
X142542857Y-65535714D01*
%TO.C,SW3*%
X260650000Y-103657142D02*
X260435714Y-103728571D01*
X260078571Y-103728571D01*
X259935714Y-103657142D01*
X259864285Y-103585714D01*
X259792857Y-103442857D01*
X259792857Y-103300000D01*
X259864285Y-103157142D01*
X259935714Y-103085714D01*
X260078571Y-103014285D01*
X260364285Y-102942857D01*
X260507142Y-102871428D01*
X260578571Y-102800000D01*
X260650000Y-102657142D01*
X260650000Y-102514285D01*
X260578571Y-102371428D01*
X260507142Y-102300000D01*
X260364285Y-102228571D01*
X260007142Y-102228571D01*
X259792857Y-102300000D01*
X259292857Y-102228571D02*
X258935714Y-103728571D01*
X258650000Y-102657142D01*
X258364285Y-103728571D01*
X258007142Y-102228571D01*
X257578571Y-102228571D02*
X256650000Y-102228571D01*
X257150000Y-102800000D01*
X256935714Y-102800000D01*
X256792857Y-102871428D01*
X256721428Y-102942857D01*
X256650000Y-103085714D01*
X256650000Y-103442857D01*
X256721428Y-103585714D01*
X256792857Y-103657142D01*
X256935714Y-103728571D01*
X257364285Y-103728571D01*
X257507142Y-103657142D01*
X257578571Y-103585714D01*
%TO.C,SW13*%
X204214285Y-65657142D02*
X204000000Y-65728571D01*
X203642857Y-65728571D01*
X203500000Y-65657142D01*
X203428571Y-65585714D01*
X203357142Y-65442857D01*
X203357142Y-65300000D01*
X203428571Y-65157142D01*
X203500000Y-65085714D01*
X203642857Y-65014285D01*
X203928571Y-64942857D01*
X204071428Y-64871428D01*
X204142857Y-64800000D01*
X204214285Y-64657142D01*
X204214285Y-64514285D01*
X204142857Y-64371428D01*
X204071428Y-64300000D01*
X203928571Y-64228571D01*
X203571428Y-64228571D01*
X203357142Y-64300000D01*
X202857142Y-64228571D02*
X202500000Y-65728571D01*
X202214285Y-64657142D01*
X201928571Y-65728571D01*
X201571428Y-64228571D01*
X200214285Y-65728571D02*
X201071428Y-65728571D01*
X200642857Y-65728571D02*
X200642857Y-64228571D01*
X200785714Y-64442857D01*
X200928571Y-64585714D01*
X201071428Y-64657142D01*
X199714285Y-64228571D02*
X198785714Y-64228571D01*
X199285714Y-64800000D01*
X199071428Y-64800000D01*
X198928571Y-64871428D01*
X198857142Y-64942857D01*
X198785714Y-65085714D01*
X198785714Y-65442857D01*
X198857142Y-65585714D01*
X198928571Y-65657142D01*
X199071428Y-65728571D01*
X199500000Y-65728571D01*
X199642857Y-65657142D01*
X199714285Y-65585714D01*
%TO.C,SW45*%
X51914285Y-65607142D02*
X51700000Y-65678571D01*
X51342857Y-65678571D01*
X51200000Y-65607142D01*
X51128571Y-65535714D01*
X51057142Y-65392857D01*
X51057142Y-65250000D01*
X51128571Y-65107142D01*
X51200000Y-65035714D01*
X51342857Y-64964285D01*
X51628571Y-64892857D01*
X51771428Y-64821428D01*
X51842857Y-64750000D01*
X51914285Y-64607142D01*
X51914285Y-64464285D01*
X51842857Y-64321428D01*
X51771428Y-64250000D01*
X51628571Y-64178571D01*
X51271428Y-64178571D01*
X51057142Y-64250000D01*
X50557142Y-64178571D02*
X50200000Y-65678571D01*
X49914285Y-64607142D01*
X49628571Y-65678571D01*
X49271428Y-64178571D01*
X48057142Y-64678571D02*
X48057142Y-65678571D01*
X48414285Y-64107142D02*
X48771428Y-65178571D01*
X47842857Y-65178571D01*
X46557142Y-64178571D02*
X47271428Y-64178571D01*
X47342857Y-64892857D01*
X47271428Y-64821428D01*
X47128571Y-64750000D01*
X46771428Y-64750000D01*
X46628571Y-64821428D01*
X46557142Y-64892857D01*
X46485714Y-65035714D01*
X46485714Y-65392857D01*
X46557142Y-65535714D01*
X46628571Y-65607142D01*
X46771428Y-65678571D01*
X47128571Y-65678571D01*
X47271428Y-65607142D01*
X47342857Y-65535714D01*
%TO.C,SW44*%
X70964285Y-122607142D02*
X70750000Y-122678571D01*
X70392857Y-122678571D01*
X70250000Y-122607142D01*
X70178571Y-122535714D01*
X70107142Y-122392857D01*
X70107142Y-122250000D01*
X70178571Y-122107142D01*
X70250000Y-122035714D01*
X70392857Y-121964285D01*
X70678571Y-121892857D01*
X70821428Y-121821428D01*
X70892857Y-121750000D01*
X70964285Y-121607142D01*
X70964285Y-121464285D01*
X70892857Y-121321428D01*
X70821428Y-121250000D01*
X70678571Y-121178571D01*
X70321428Y-121178571D01*
X70107142Y-121250000D01*
X69607142Y-121178571D02*
X69250000Y-122678571D01*
X68964285Y-121607142D01*
X68678571Y-122678571D01*
X68321428Y-121178571D01*
X67107142Y-121678571D02*
X67107142Y-122678571D01*
X67464285Y-121107142D02*
X67821428Y-122178571D01*
X66892857Y-122178571D01*
X65678571Y-121678571D02*
X65678571Y-122678571D01*
X66035714Y-121107142D02*
X66392857Y-122178571D01*
X65464285Y-122178571D01*
%TO.C,SW8*%
X241600000Y-122657142D02*
X241385714Y-122728571D01*
X241028571Y-122728571D01*
X240885714Y-122657142D01*
X240814285Y-122585714D01*
X240742857Y-122442857D01*
X240742857Y-122300000D01*
X240814285Y-122157142D01*
X240885714Y-122085714D01*
X241028571Y-122014285D01*
X241314285Y-121942857D01*
X241457142Y-121871428D01*
X241528571Y-121800000D01*
X241600000Y-121657142D01*
X241600000Y-121514285D01*
X241528571Y-121371428D01*
X241457142Y-121300000D01*
X241314285Y-121228571D01*
X240957142Y-121228571D01*
X240742857Y-121300000D01*
X240242857Y-121228571D02*
X239885714Y-122728571D01*
X239600000Y-121657142D01*
X239314285Y-122728571D01*
X238957142Y-121228571D01*
X238171428Y-121871428D02*
X238314285Y-121800000D01*
X238385714Y-121728571D01*
X238457142Y-121585714D01*
X238457142Y-121514285D01*
X238385714Y-121371428D01*
X238314285Y-121300000D01*
X238171428Y-121228571D01*
X237885714Y-121228571D01*
X237742857Y-121300000D01*
X237671428Y-121371428D01*
X237600000Y-121514285D01*
X237600000Y-121585714D01*
X237671428Y-121728571D01*
X237742857Y-121800000D01*
X237885714Y-121871428D01*
X238171428Y-121871428D01*
X238314285Y-121942857D01*
X238385714Y-122014285D01*
X238457142Y-122157142D01*
X238457142Y-122442857D01*
X238385714Y-122585714D01*
X238314285Y-122657142D01*
X238171428Y-122728571D01*
X237885714Y-122728571D01*
X237742857Y-122657142D01*
X237671428Y-122585714D01*
X237600000Y-122442857D01*
X237600000Y-122157142D01*
X237671428Y-122014285D01*
X237742857Y-121942857D01*
X237885714Y-121871428D01*
%TO.C,SW30*%
X128064285Y-84607142D02*
X127850000Y-84678571D01*
X127492857Y-84678571D01*
X127350000Y-84607142D01*
X127278571Y-84535714D01*
X127207142Y-84392857D01*
X127207142Y-84250000D01*
X127278571Y-84107142D01*
X127350000Y-84035714D01*
X127492857Y-83964285D01*
X127778571Y-83892857D01*
X127921428Y-83821428D01*
X127992857Y-83750000D01*
X128064285Y-83607142D01*
X128064285Y-83464285D01*
X127992857Y-83321428D01*
X127921428Y-83250000D01*
X127778571Y-83178571D01*
X127421428Y-83178571D01*
X127207142Y-83250000D01*
X126707142Y-83178571D02*
X126350000Y-84678571D01*
X126064285Y-83607142D01*
X125778571Y-84678571D01*
X125421428Y-83178571D01*
X124992857Y-83178571D02*
X124064285Y-83178571D01*
X124564285Y-83750000D01*
X124350000Y-83750000D01*
X124207142Y-83821428D01*
X124135714Y-83892857D01*
X124064285Y-84035714D01*
X124064285Y-84392857D01*
X124135714Y-84535714D01*
X124207142Y-84607142D01*
X124350000Y-84678571D01*
X124778571Y-84678571D01*
X124921428Y-84607142D01*
X124992857Y-84535714D01*
X123135714Y-83178571D02*
X122992857Y-83178571D01*
X122850000Y-83250000D01*
X122778571Y-83321428D01*
X122707142Y-83464285D01*
X122635714Y-83750000D01*
X122635714Y-84107142D01*
X122707142Y-84392857D01*
X122778571Y-84535714D01*
X122850000Y-84607142D01*
X122992857Y-84678571D01*
X123135714Y-84678571D01*
X123278571Y-84607142D01*
X123350000Y-84535714D01*
X123421428Y-84392857D01*
X123492857Y-84107142D01*
X123492857Y-83750000D01*
X123421428Y-83464285D01*
X123350000Y-83321428D01*
X123278571Y-83250000D01*
X123135714Y-83178571D01*
%TO.C,SW7*%
X241600000Y-103657142D02*
X241385714Y-103728571D01*
X241028571Y-103728571D01*
X240885714Y-103657142D01*
X240814285Y-103585714D01*
X240742857Y-103442857D01*
X240742857Y-103300000D01*
X240814285Y-103157142D01*
X240885714Y-103085714D01*
X241028571Y-103014285D01*
X241314285Y-102942857D01*
X241457142Y-102871428D01*
X241528571Y-102800000D01*
X241600000Y-102657142D01*
X241600000Y-102514285D01*
X241528571Y-102371428D01*
X241457142Y-102300000D01*
X241314285Y-102228571D01*
X240957142Y-102228571D01*
X240742857Y-102300000D01*
X240242857Y-102228571D02*
X239885714Y-103728571D01*
X239600000Y-102657142D01*
X239314285Y-103728571D01*
X238957142Y-102228571D01*
X238528571Y-102228571D02*
X237528571Y-102228571D01*
X238171428Y-103728571D01*
%TO.C,SW43*%
X70964285Y-103607142D02*
X70750000Y-103678571D01*
X70392857Y-103678571D01*
X70250000Y-103607142D01*
X70178571Y-103535714D01*
X70107142Y-103392857D01*
X70107142Y-103250000D01*
X70178571Y-103107142D01*
X70250000Y-103035714D01*
X70392857Y-102964285D01*
X70678571Y-102892857D01*
X70821428Y-102821428D01*
X70892857Y-102750000D01*
X70964285Y-102607142D01*
X70964285Y-102464285D01*
X70892857Y-102321428D01*
X70821428Y-102250000D01*
X70678571Y-102178571D01*
X70321428Y-102178571D01*
X70107142Y-102250000D01*
X69607142Y-102178571D02*
X69250000Y-103678571D01*
X68964285Y-102607142D01*
X68678571Y-103678571D01*
X68321428Y-102178571D01*
X67107142Y-102678571D02*
X67107142Y-103678571D01*
X67464285Y-102107142D02*
X67821428Y-103178571D01*
X66892857Y-103178571D01*
X66464285Y-102178571D02*
X65535714Y-102178571D01*
X66035714Y-102750000D01*
X65821428Y-102750000D01*
X65678571Y-102821428D01*
X65607142Y-102892857D01*
X65535714Y-103035714D01*
X65535714Y-103392857D01*
X65607142Y-103535714D01*
X65678571Y-103607142D01*
X65821428Y-103678571D01*
X66250000Y-103678571D01*
X66392857Y-103607142D01*
X66464285Y-103535714D01*
%TO.C,SW46*%
X51914285Y-84607142D02*
X51700000Y-84678571D01*
X51342857Y-84678571D01*
X51200000Y-84607142D01*
X51128571Y-84535714D01*
X51057142Y-84392857D01*
X51057142Y-84250000D01*
X51128571Y-84107142D01*
X51200000Y-84035714D01*
X51342857Y-83964285D01*
X51628571Y-83892857D01*
X51771428Y-83821428D01*
X51842857Y-83750000D01*
X51914285Y-83607142D01*
X51914285Y-83464285D01*
X51842857Y-83321428D01*
X51771428Y-83250000D01*
X51628571Y-83178571D01*
X51271428Y-83178571D01*
X51057142Y-83250000D01*
X50557142Y-83178571D02*
X50200000Y-84678571D01*
X49914285Y-83607142D01*
X49628571Y-84678571D01*
X49271428Y-83178571D01*
X48057142Y-83678571D02*
X48057142Y-84678571D01*
X48414285Y-83107142D02*
X48771428Y-84178571D01*
X47842857Y-84178571D01*
X46628571Y-83178571D02*
X46914285Y-83178571D01*
X47057142Y-83250000D01*
X47128571Y-83321428D01*
X47271428Y-83535714D01*
X47342857Y-83821428D01*
X47342857Y-84392857D01*
X47271428Y-84535714D01*
X47200000Y-84607142D01*
X47057142Y-84678571D01*
X46771428Y-84678571D01*
X46628571Y-84607142D01*
X46557142Y-84535714D01*
X46485714Y-84392857D01*
X46485714Y-84035714D01*
X46557142Y-83892857D01*
X46628571Y-83821428D01*
X46771428Y-83750000D01*
X47057142Y-83750000D01*
X47200000Y-83821428D01*
X47271428Y-83892857D01*
X47342857Y-84035714D01*
%TO.C,SW1*%
X260650000Y-65657142D02*
X260435714Y-65728571D01*
X260078571Y-65728571D01*
X259935714Y-65657142D01*
X259864285Y-65585714D01*
X259792857Y-65442857D01*
X259792857Y-65300000D01*
X259864285Y-65157142D01*
X259935714Y-65085714D01*
X260078571Y-65014285D01*
X260364285Y-64942857D01*
X260507142Y-64871428D01*
X260578571Y-64800000D01*
X260650000Y-64657142D01*
X260650000Y-64514285D01*
X260578571Y-64371428D01*
X260507142Y-64300000D01*
X260364285Y-64228571D01*
X260007142Y-64228571D01*
X259792857Y-64300000D01*
X259292857Y-64228571D02*
X258935714Y-65728571D01*
X258650000Y-64657142D01*
X258364285Y-65728571D01*
X258007142Y-64228571D01*
X256650000Y-65728571D02*
X257507142Y-65728571D01*
X257078571Y-65728571D02*
X257078571Y-64228571D01*
X257221428Y-64442857D01*
X257364285Y-64585714D01*
X257507142Y-64657142D01*
%TO.C,SW14*%
X204214285Y-84657142D02*
X204000000Y-84728571D01*
X203642857Y-84728571D01*
X203500000Y-84657142D01*
X203428571Y-84585714D01*
X203357142Y-84442857D01*
X203357142Y-84300000D01*
X203428571Y-84157142D01*
X203500000Y-84085714D01*
X203642857Y-84014285D01*
X203928571Y-83942857D01*
X204071428Y-83871428D01*
X204142857Y-83800000D01*
X204214285Y-83657142D01*
X204214285Y-83514285D01*
X204142857Y-83371428D01*
X204071428Y-83300000D01*
X203928571Y-83228571D01*
X203571428Y-83228571D01*
X203357142Y-83300000D01*
X202857142Y-83228571D02*
X202500000Y-84728571D01*
X202214285Y-83657142D01*
X201928571Y-84728571D01*
X201571428Y-83228571D01*
X200214285Y-84728571D02*
X201071428Y-84728571D01*
X200642857Y-84728571D02*
X200642857Y-83228571D01*
X200785714Y-83442857D01*
X200928571Y-83585714D01*
X201071428Y-83657142D01*
X198928571Y-83728571D02*
X198928571Y-84728571D01*
X199285714Y-83157142D02*
X199642857Y-84228571D01*
X198714285Y-84228571D01*
%TO.C,SW16*%
X204214285Y-122657142D02*
X204000000Y-122728571D01*
X203642857Y-122728571D01*
X203500000Y-122657142D01*
X203428571Y-122585714D01*
X203357142Y-122442857D01*
X203357142Y-122300000D01*
X203428571Y-122157142D01*
X203500000Y-122085714D01*
X203642857Y-122014285D01*
X203928571Y-121942857D01*
X204071428Y-121871428D01*
X204142857Y-121800000D01*
X204214285Y-121657142D01*
X204214285Y-121514285D01*
X204142857Y-121371428D01*
X204071428Y-121300000D01*
X203928571Y-121228571D01*
X203571428Y-121228571D01*
X203357142Y-121300000D01*
X202857142Y-121228571D02*
X202500000Y-122728571D01*
X202214285Y-121657142D01*
X201928571Y-122728571D01*
X201571428Y-121228571D01*
X200214285Y-122728571D02*
X201071428Y-122728571D01*
X200642857Y-122728571D02*
X200642857Y-121228571D01*
X200785714Y-121442857D01*
X200928571Y-121585714D01*
X201071428Y-121657142D01*
X198928571Y-121228571D02*
X199214285Y-121228571D01*
X199357142Y-121300000D01*
X199428571Y-121371428D01*
X199571428Y-121585714D01*
X199642857Y-121871428D01*
X199642857Y-122442857D01*
X199571428Y-122585714D01*
X199500000Y-122657142D01*
X199357142Y-122728571D01*
X199071428Y-122728571D01*
X198928571Y-122657142D01*
X198857142Y-122585714D01*
X198785714Y-122442857D01*
X198785714Y-122085714D01*
X198857142Y-121942857D01*
X198928571Y-121871428D01*
X199071428Y-121800000D01*
X199357142Y-121800000D01*
X199500000Y-121871428D01*
X199571428Y-121942857D01*
X199642857Y-122085714D01*
%TO.C,SW24*%
X166114285Y-122657142D02*
X165900000Y-122728571D01*
X165542857Y-122728571D01*
X165400000Y-122657142D01*
X165328571Y-122585714D01*
X165257142Y-122442857D01*
X165257142Y-122300000D01*
X165328571Y-122157142D01*
X165400000Y-122085714D01*
X165542857Y-122014285D01*
X165828571Y-121942857D01*
X165971428Y-121871428D01*
X166042857Y-121800000D01*
X166114285Y-121657142D01*
X166114285Y-121514285D01*
X166042857Y-121371428D01*
X165971428Y-121300000D01*
X165828571Y-121228571D01*
X165471428Y-121228571D01*
X165257142Y-121300000D01*
X164757142Y-121228571D02*
X164400000Y-122728571D01*
X164114285Y-121657142D01*
X163828571Y-122728571D01*
X163471428Y-121228571D01*
X162971428Y-121371428D02*
X162900000Y-121300000D01*
X162757142Y-121228571D01*
X162400000Y-121228571D01*
X162257142Y-121300000D01*
X162185714Y-121371428D01*
X162114285Y-121514285D01*
X162114285Y-121657142D01*
X162185714Y-121871428D01*
X163042857Y-122728571D01*
X162114285Y-122728571D01*
X160828571Y-121728571D02*
X160828571Y-122728571D01*
X161185714Y-121157142D02*
X161542857Y-122228571D01*
X160614285Y-122228571D01*
%TO.C,SW17*%
X185164285Y-65657142D02*
X184950000Y-65728571D01*
X184592857Y-65728571D01*
X184450000Y-65657142D01*
X184378571Y-65585714D01*
X184307142Y-65442857D01*
X184307142Y-65300000D01*
X184378571Y-65157142D01*
X184450000Y-65085714D01*
X184592857Y-65014285D01*
X184878571Y-64942857D01*
X185021428Y-64871428D01*
X185092857Y-64800000D01*
X185164285Y-64657142D01*
X185164285Y-64514285D01*
X185092857Y-64371428D01*
X185021428Y-64300000D01*
X184878571Y-64228571D01*
X184521428Y-64228571D01*
X184307142Y-64300000D01*
X183807142Y-64228571D02*
X183450000Y-65728571D01*
X183164285Y-64657142D01*
X182878571Y-65728571D01*
X182521428Y-64228571D01*
X181164285Y-65728571D02*
X182021428Y-65728571D01*
X181592857Y-65728571D02*
X181592857Y-64228571D01*
X181735714Y-64442857D01*
X181878571Y-64585714D01*
X182021428Y-64657142D01*
X180664285Y-64228571D02*
X179664285Y-64228571D01*
X180307142Y-65728571D01*
%TO.C,SW42*%
X70964285Y-84607142D02*
X70750000Y-84678571D01*
X70392857Y-84678571D01*
X70250000Y-84607142D01*
X70178571Y-84535714D01*
X70107142Y-84392857D01*
X70107142Y-84250000D01*
X70178571Y-84107142D01*
X70250000Y-84035714D01*
X70392857Y-83964285D01*
X70678571Y-83892857D01*
X70821428Y-83821428D01*
X70892857Y-83750000D01*
X70964285Y-83607142D01*
X70964285Y-83464285D01*
X70892857Y-83321428D01*
X70821428Y-83250000D01*
X70678571Y-83178571D01*
X70321428Y-83178571D01*
X70107142Y-83250000D01*
X69607142Y-83178571D02*
X69250000Y-84678571D01*
X68964285Y-83607142D01*
X68678571Y-84678571D01*
X68321428Y-83178571D01*
X67107142Y-83678571D02*
X67107142Y-84678571D01*
X67464285Y-83107142D02*
X67821428Y-84178571D01*
X66892857Y-84178571D01*
X66392857Y-83321428D02*
X66321428Y-83250000D01*
X66178571Y-83178571D01*
X65821428Y-83178571D01*
X65678571Y-83250000D01*
X65607142Y-83321428D01*
X65535714Y-83464285D01*
X65535714Y-83607142D01*
X65607142Y-83821428D01*
X66464285Y-84678571D01*
X65535714Y-84678571D01*
%TO.C,SW29*%
X128064285Y-65607142D02*
X127850000Y-65678571D01*
X127492857Y-65678571D01*
X127350000Y-65607142D01*
X127278571Y-65535714D01*
X127207142Y-65392857D01*
X127207142Y-65250000D01*
X127278571Y-65107142D01*
X127350000Y-65035714D01*
X127492857Y-64964285D01*
X127778571Y-64892857D01*
X127921428Y-64821428D01*
X127992857Y-64750000D01*
X128064285Y-64607142D01*
X128064285Y-64464285D01*
X127992857Y-64321428D01*
X127921428Y-64250000D01*
X127778571Y-64178571D01*
X127421428Y-64178571D01*
X127207142Y-64250000D01*
X126707142Y-64178571D02*
X126350000Y-65678571D01*
X126064285Y-64607142D01*
X125778571Y-65678571D01*
X125421428Y-64178571D01*
X124921428Y-64321428D02*
X124850000Y-64250000D01*
X124707142Y-64178571D01*
X124350000Y-64178571D01*
X124207142Y-64250000D01*
X124135714Y-64321428D01*
X124064285Y-64464285D01*
X124064285Y-64607142D01*
X124135714Y-64821428D01*
X124992857Y-65678571D01*
X124064285Y-65678571D01*
X123350000Y-65678571D02*
X123064285Y-65678571D01*
X122921428Y-65607142D01*
X122850000Y-65535714D01*
X122707142Y-65321428D01*
X122635714Y-65035714D01*
X122635714Y-64464285D01*
X122707142Y-64321428D01*
X122778571Y-64250000D01*
X122921428Y-64178571D01*
X123207142Y-64178571D01*
X123350000Y-64250000D01*
X123421428Y-64321428D01*
X123492857Y-64464285D01*
X123492857Y-64821428D01*
X123421428Y-64964285D01*
X123350000Y-65035714D01*
X123207142Y-65107142D01*
X122921428Y-65107142D01*
X122778571Y-65035714D01*
X122707142Y-64964285D01*
X122635714Y-64821428D01*
D11*
%TO.C,SW22*%
X155650000Y-77650000D02*
X171150000Y-77650000D01*
X171150000Y-77650000D02*
X171150000Y-90450000D01*
X155650000Y-77650000D02*
X155650000Y-90450000D01*
X155650000Y-90450000D02*
X171150000Y-90450000D01*
%TO.C,SW40*%
X79550000Y-115600000D02*
X79550000Y-128400000D01*
X95050000Y-115600000D02*
X95050000Y-128400000D01*
X79550000Y-128400000D02*
X95050000Y-128400000D01*
X79550000Y-115600000D02*
X95050000Y-115600000D01*
%TO.C,SW11*%
X212800000Y-109450000D02*
X212800000Y-96650000D01*
X228300000Y-109450000D02*
X228300000Y-96650000D01*
X228300000Y-109450000D02*
X212800000Y-109450000D01*
X228300000Y-96650000D02*
X212800000Y-96650000D01*
%TO.C,SW37*%
X95050000Y-71400000D02*
X95050000Y-58600000D01*
X79550000Y-71400000D02*
X79550000Y-58600000D01*
X95050000Y-58600000D02*
X79550000Y-58600000D01*
X95050000Y-71400000D02*
X79550000Y-71400000D01*
%TO.C,SW39*%
X95050000Y-109400000D02*
X95050000Y-96600000D01*
X95050000Y-109400000D02*
X79550000Y-109400000D01*
X79550000Y-109400000D02*
X79550000Y-96600000D01*
X95050000Y-96600000D02*
X79550000Y-96600000D01*
%TO.C,SW35*%
X114100000Y-109400000D02*
X114100000Y-96600000D01*
X98600000Y-109400000D02*
X98600000Y-96600000D01*
X114100000Y-96600000D02*
X98600000Y-96600000D01*
X114100000Y-109400000D02*
X98600000Y-109400000D01*
%TO.C,SW19*%
X174700000Y-109450000D02*
X174700000Y-96650000D01*
X190200000Y-109450000D02*
X190200000Y-96650000D01*
X190200000Y-96650000D02*
X174700000Y-96650000D01*
X190200000Y-109450000D02*
X174700000Y-109450000D01*
%TO.C,SW20*%
X190200000Y-115650000D02*
X190200000Y-128450000D01*
X174700000Y-115650000D02*
X174700000Y-128450000D01*
X174700000Y-115650000D02*
X190200000Y-115650000D01*
X174700000Y-128450000D02*
X190200000Y-128450000D01*
%TO.C,SW10*%
X212800000Y-90450000D02*
X228300000Y-90450000D01*
X228300000Y-77650000D02*
X228300000Y-90450000D01*
X212800000Y-77650000D02*
X228300000Y-77650000D01*
X212800000Y-77650000D02*
X212800000Y-90450000D01*
%TO.C,SW5*%
X247350000Y-71450000D02*
X231850000Y-71450000D01*
X247350000Y-58650000D02*
X231850000Y-58650000D01*
X231850000Y-71450000D02*
X231850000Y-58650000D01*
X247350000Y-71450000D02*
X247350000Y-58650000D01*
%TO.C,SW4*%
X250900000Y-128450000D02*
X266400000Y-128450000D01*
X250900000Y-115650000D02*
X250900000Y-128450000D01*
X250900000Y-115650000D02*
X266400000Y-115650000D01*
X266400000Y-115650000D02*
X266400000Y-128450000D01*
%TO.C,SW36*%
X98600000Y-115600000D02*
X114100000Y-115600000D01*
X98600000Y-128400000D02*
X114100000Y-128400000D01*
X98600000Y-115600000D02*
X98600000Y-128400000D01*
X114100000Y-115600000D02*
X114100000Y-128400000D01*
%TO.C,SW38*%
X79550000Y-77600000D02*
X95050000Y-77600000D01*
X79550000Y-90400000D02*
X95050000Y-90400000D01*
X79550000Y-77600000D02*
X79550000Y-90400000D01*
X95050000Y-77600000D02*
X95050000Y-90400000D01*
%TO.C,SW48*%
X41450000Y-115600000D02*
X41450000Y-128400000D01*
X41450000Y-128400000D02*
X56950000Y-128400000D01*
X56950000Y-115600000D02*
X56950000Y-128400000D01*
X41450000Y-115600000D02*
X56950000Y-115600000D01*
%TO.C,SW33*%
X114100000Y-71400000D02*
X98600000Y-71400000D01*
X114100000Y-71400000D02*
X114100000Y-58600000D01*
X98600000Y-71400000D02*
X98600000Y-58600000D01*
X114100000Y-58600000D02*
X98600000Y-58600000D01*
%TO.C,SW23*%
X171150000Y-109450000D02*
X155650000Y-109450000D01*
X171150000Y-96650000D02*
X155650000Y-96650000D01*
X171150000Y-109450000D02*
X171150000Y-96650000D01*
X155650000Y-109450000D02*
X155650000Y-96650000D01*
%TO.C,SW21*%
X171150000Y-71450000D02*
X171150000Y-58650000D01*
X171150000Y-58650000D02*
X155650000Y-58650000D01*
X155650000Y-71450000D02*
X155650000Y-58650000D01*
X171150000Y-71450000D02*
X155650000Y-71450000D01*
%TO.C,SW18*%
X174700000Y-77650000D02*
X174700000Y-90450000D01*
X174700000Y-90450000D02*
X190200000Y-90450000D01*
X190200000Y-77650000D02*
X190200000Y-90450000D01*
X174700000Y-77650000D02*
X190200000Y-77650000D01*
%TO.C,SW2*%
X250900000Y-90450000D02*
X266400000Y-90450000D01*
X266400000Y-77650000D02*
X266400000Y-90450000D01*
X250900000Y-77650000D02*
X266400000Y-77650000D01*
X250900000Y-77650000D02*
X250900000Y-90450000D01*
%TO.C,SW9*%
X228350000Y-71450000D02*
X212850000Y-71450000D01*
X228350000Y-71450000D02*
X228350000Y-58650000D01*
X228350000Y-58650000D02*
X212850000Y-58650000D01*
X212850000Y-71450000D02*
X212850000Y-58650000D01*
%TO.C,SW12*%
X212800000Y-115650000D02*
X228300000Y-115650000D01*
X228300000Y-115650000D02*
X228300000Y-128450000D01*
X212800000Y-115650000D02*
X212800000Y-128450000D01*
X212800000Y-128450000D02*
X228300000Y-128450000D01*
%TO.C,SW32*%
X117600000Y-115600000D02*
X117600000Y-128400000D01*
X117600000Y-128400000D02*
X133100000Y-128400000D01*
X133100000Y-115600000D02*
X133100000Y-128400000D01*
X117600000Y-115600000D02*
X133100000Y-115600000D01*
%TO.C,SW47*%
X41450000Y-109400000D02*
X41450000Y-96600000D01*
X56950000Y-109400000D02*
X41450000Y-109400000D01*
X56950000Y-96600000D02*
X41450000Y-96600000D01*
X56950000Y-109400000D02*
X56950000Y-96600000D01*
%TO.C,SW34*%
X114100000Y-77600000D02*
X114100000Y-90400000D01*
X98600000Y-90400000D02*
X114100000Y-90400000D01*
X98600000Y-77600000D02*
X98600000Y-90400000D01*
X98600000Y-77600000D02*
X114100000Y-77600000D01*
%TO.C,SW41*%
X60500000Y-71400000D02*
X60500000Y-58600000D01*
X76000000Y-71400000D02*
X76000000Y-58600000D01*
X76000000Y-58600000D02*
X60500000Y-58600000D01*
X76000000Y-71400000D02*
X60500000Y-71400000D01*
%TO.C,SW15*%
X209250000Y-109450000D02*
X209250000Y-96650000D01*
X209250000Y-96650000D02*
X193750000Y-96650000D01*
X209250000Y-109450000D02*
X193750000Y-109450000D01*
X193750000Y-109450000D02*
X193750000Y-96650000D01*
%TO.C,SW26*%
X136700000Y-77600000D02*
X136700000Y-90400000D01*
X136700000Y-90400000D02*
X152200000Y-90400000D01*
X136700000Y-77600000D02*
X152200000Y-77600000D01*
X152200000Y-77600000D02*
X152200000Y-90400000D01*
%TO.C,SW31*%
X133100000Y-109400000D02*
X133100000Y-96600000D01*
X133100000Y-109400000D02*
X117600000Y-109400000D01*
X133100000Y-96600000D02*
X117600000Y-96600000D01*
X117600000Y-109400000D02*
X117600000Y-96600000D01*
%TO.C,SW27*%
X152200000Y-109400000D02*
X136700000Y-109400000D01*
X152200000Y-109400000D02*
X152200000Y-96600000D01*
X136700000Y-109400000D02*
X136700000Y-96600000D01*
X152200000Y-96600000D02*
X136700000Y-96600000D01*
%TO.C,SW6*%
X231850000Y-90450000D02*
X247350000Y-90450000D01*
X231850000Y-77650000D02*
X247350000Y-77650000D01*
X247350000Y-77650000D02*
X247350000Y-90450000D01*
X231850000Y-77650000D02*
X231850000Y-90450000D01*
%TO.C,SW28*%
X136700000Y-128400000D02*
X152200000Y-128400000D01*
X136700000Y-115600000D02*
X152200000Y-115600000D01*
X152200000Y-115600000D02*
X152200000Y-128400000D01*
X136700000Y-115600000D02*
X136700000Y-128400000D01*
%TO.C,SW25*%
X152150000Y-58600000D02*
X136650000Y-58600000D01*
X136650000Y-71400000D02*
X136650000Y-58600000D01*
X152150000Y-71400000D02*
X152150000Y-58600000D01*
X152150000Y-71400000D02*
X136650000Y-71400000D01*
%TO.C,SW3*%
X266400000Y-96650000D02*
X250900000Y-96650000D01*
X250900000Y-109450000D02*
X250900000Y-96650000D01*
X266400000Y-109450000D02*
X266400000Y-96650000D01*
X266400000Y-109450000D02*
X250900000Y-109450000D01*
%TO.C,SW13*%
X209250000Y-71450000D02*
X193750000Y-71450000D01*
X209250000Y-58650000D02*
X193750000Y-58650000D01*
X209250000Y-71450000D02*
X209250000Y-58650000D01*
X193750000Y-71450000D02*
X193750000Y-58650000D01*
%TO.C,SW45*%
X41450000Y-71400000D02*
X41450000Y-58600000D01*
X56950000Y-71400000D02*
X56950000Y-58600000D01*
X56950000Y-58600000D02*
X41450000Y-58600000D01*
X56950000Y-71400000D02*
X41450000Y-71400000D01*
%TO.C,SW44*%
X60500000Y-115600000D02*
X76000000Y-115600000D01*
X76000000Y-115600000D02*
X76000000Y-128400000D01*
X60500000Y-128400000D02*
X76000000Y-128400000D01*
X60500000Y-115600000D02*
X60500000Y-128400000D01*
%TO.C,SW8*%
X231850000Y-115650000D02*
X247350000Y-115650000D01*
X247350000Y-115650000D02*
X247350000Y-128450000D01*
X231850000Y-128450000D02*
X247350000Y-128450000D01*
X231850000Y-115650000D02*
X231850000Y-128450000D01*
%TO.C,SW30*%
X133100000Y-77600000D02*
X133100000Y-90400000D01*
X117600000Y-77600000D02*
X117600000Y-90400000D01*
X117600000Y-77600000D02*
X133100000Y-77600000D01*
X117600000Y-90400000D02*
X133100000Y-90400000D01*
%TO.C,SW7*%
X231850000Y-109450000D02*
X231850000Y-96650000D01*
X247350000Y-109450000D02*
X231850000Y-109450000D01*
X247350000Y-96650000D02*
X231850000Y-96650000D01*
X247350000Y-109450000D02*
X247350000Y-96650000D01*
%TO.C,SW43*%
X76000000Y-109400000D02*
X60500000Y-109400000D01*
X60500000Y-109400000D02*
X60500000Y-96600000D01*
X76000000Y-96600000D02*
X60500000Y-96600000D01*
X76000000Y-109400000D02*
X76000000Y-96600000D01*
%TO.C,SW46*%
X41450000Y-77600000D02*
X41450000Y-90400000D01*
X56950000Y-77600000D02*
X56950000Y-90400000D01*
X41450000Y-90400000D02*
X56950000Y-90400000D01*
X41450000Y-77600000D02*
X56950000Y-77600000D01*
%TO.C,SW1*%
X266400000Y-71450000D02*
X266400000Y-58650000D01*
X250900000Y-71450000D02*
X250900000Y-58650000D01*
X266400000Y-71450000D02*
X250900000Y-71450000D01*
X266400000Y-58650000D02*
X250900000Y-58650000D01*
%TO.C,SW14*%
X209250000Y-77650000D02*
X209250000Y-90450000D01*
X193750000Y-77650000D02*
X209250000Y-77650000D01*
X193750000Y-90450000D02*
X209250000Y-90450000D01*
X193750000Y-77650000D02*
X193750000Y-90450000D01*
%TO.C,SW16*%
X193750000Y-115650000D02*
X209250000Y-115650000D01*
X193750000Y-115650000D02*
X193750000Y-128450000D01*
X209250000Y-115650000D02*
X209250000Y-128450000D01*
X193750000Y-128450000D02*
X209250000Y-128450000D01*
%TO.C,SW24*%
X171150000Y-115650000D02*
X171150000Y-128450000D01*
X155650000Y-115650000D02*
X171150000Y-115650000D01*
X155650000Y-115650000D02*
X155650000Y-128450000D01*
X155650000Y-128450000D02*
X171150000Y-128450000D01*
%TO.C,SW17*%
X190200000Y-58650000D02*
X174700000Y-58650000D01*
X190200000Y-71450000D02*
X190200000Y-58650000D01*
X190200000Y-71450000D02*
X174700000Y-71450000D01*
X174700000Y-71450000D02*
X174700000Y-58650000D01*
%TO.C,SW42*%
X60500000Y-77600000D02*
X76000000Y-77600000D01*
X60500000Y-90400000D02*
X76000000Y-90400000D01*
X60500000Y-77600000D02*
X60500000Y-90400000D01*
X76000000Y-77600000D02*
X76000000Y-90400000D01*
%TO.C,SW29*%
X117600000Y-71400000D02*
X117600000Y-58600000D01*
X133100000Y-71400000D02*
X117600000Y-71400000D01*
X133100000Y-58600000D02*
X117600000Y-58600000D01*
X133100000Y-71400000D02*
X133100000Y-58600000D01*
%TD*%
M02*
