%TF.GenerationSoftware,KiCad,Pcbnew,6.0.8+dfsg-1*%
%TF.CreationDate,2022-10-27T21:27:39-03:00*%
%TF.ProjectId,Calebe94,43616c65-6265-4393-942e-6b696361645f,rev?*%
%TF.SameCoordinates,Original*%
%TF.FileFunction,Drillmap*%
%TF.FilePolarity,Positive*%
%FSLAX45Y45*%
G04 Gerber Fmt 4.5, Leading zero omitted, Abs format (unit mm)*
G04 Created by KiCad (PCBNEW 6.0.8+dfsg-1) date 2022-10-27 21:27:39*
%MOMM*%
%LPD*%
G01*
G04 APERTURE LIST*
%ADD10C,0.150000*%
%ADD11C,0.200000*%
G04 APERTURE END LIST*
D10*
X4000000Y-5585000D02*
X26775000Y-5585000D01*
X26775000Y-5585000D02*
X26775000Y-13125000D01*
X26775000Y-13125000D02*
X4000000Y-13125000D01*
X4000000Y-13125000D02*
X4000000Y-5585000D01*
D11*
X4250119Y-13442976D02*
X4250119Y-13242976D01*
X4297738Y-13242976D01*
X4326310Y-13252500D01*
X4345357Y-13271548D01*
X4354881Y-13290595D01*
X4364405Y-13328690D01*
X4364405Y-13357262D01*
X4354881Y-13395357D01*
X4345357Y-13414405D01*
X4326310Y-13433452D01*
X4297738Y-13442976D01*
X4250119Y-13442976D01*
X4450119Y-13442976D02*
X4450119Y-13309643D01*
X4450119Y-13347738D02*
X4459643Y-13328690D01*
X4469167Y-13319167D01*
X4488214Y-13309643D01*
X4507262Y-13309643D01*
X4573929Y-13442976D02*
X4573929Y-13309643D01*
X4573929Y-13242976D02*
X4564405Y-13252500D01*
X4573929Y-13262024D01*
X4583452Y-13252500D01*
X4573929Y-13242976D01*
X4573929Y-13262024D01*
X4697738Y-13442976D02*
X4678690Y-13433452D01*
X4669167Y-13414405D01*
X4669167Y-13242976D01*
X4802500Y-13442976D02*
X4783452Y-13433452D01*
X4773929Y-13414405D01*
X4773929Y-13242976D01*
X5031071Y-13442976D02*
X5031071Y-13242976D01*
X5097738Y-13385833D01*
X5164405Y-13242976D01*
X5164405Y-13442976D01*
X5345357Y-13442976D02*
X5345357Y-13338214D01*
X5335833Y-13319167D01*
X5316786Y-13309643D01*
X5278690Y-13309643D01*
X5259643Y-13319167D01*
X5345357Y-13433452D02*
X5326310Y-13442976D01*
X5278690Y-13442976D01*
X5259643Y-13433452D01*
X5250119Y-13414405D01*
X5250119Y-13395357D01*
X5259643Y-13376309D01*
X5278690Y-13366786D01*
X5326310Y-13366786D01*
X5345357Y-13357262D01*
X5440595Y-13309643D02*
X5440595Y-13509643D01*
X5440595Y-13319167D02*
X5459643Y-13309643D01*
X5497738Y-13309643D01*
X5516786Y-13319167D01*
X5526310Y-13328690D01*
X5535833Y-13347738D01*
X5535833Y-13404881D01*
X5526310Y-13423928D01*
X5516786Y-13433452D01*
X5497738Y-13442976D01*
X5459643Y-13442976D01*
X5440595Y-13433452D01*
X5621548Y-13423928D02*
X5631071Y-13433452D01*
X5621548Y-13442976D01*
X5612024Y-13433452D01*
X5621548Y-13423928D01*
X5621548Y-13442976D01*
X5621548Y-13319167D02*
X5631071Y-13328690D01*
X5621548Y-13338214D01*
X5612024Y-13328690D01*
X5621548Y-13319167D01*
X5621548Y-13338214D01*
M02*
