%TF.GenerationSoftware,KiCad,Pcbnew,6.0.8+dfsg-1*%
%TF.CreationDate,2022-10-27T21:27:42-03:00*%
%TF.ProjectId,Calebe94,43616c65-6265-4393-942e-6b696361645f,rev?*%
%TF.SameCoordinates,Original*%
%TF.FileFunction,Soldermask,Top*%
%TF.FilePolarity,Negative*%
%FSLAX46Y46*%
G04 Gerber Fmt 4.6, Leading zero omitted, Abs format (unit mm)*
G04 Created by KiCad (PCBNEW 6.0.8+dfsg-1) date 2022-10-27 21:27:42*
%MOMM*%
%LPD*%
G01*
G04 APERTURE LIST*
%ADD10R,1.200000X1.200000*%
%ADD11R,1.600000X1.600000*%
%ADD12C,1.600000*%
%ADD13C,2.500000*%
%ADD14C,2.000000*%
%ADD15R,1.700000X1.700000*%
%ADD16O,1.700000X1.700000*%
%ADD17C,1.879600*%
%ADD18C,1.400000*%
%ADD19O,1.400000X1.400000*%
%ADD20O,1.600000X1.600000*%
%ADD21C,1.500000*%
%ADD22C,1.200000*%
%ADD23C,1.700000*%
%ADD24C,3.500000*%
G04 APERTURE END LIST*
D10*
%TO.C,D40*%
X90275000Y-114000000D03*
D11*
X92600000Y-114000000D03*
D12*
X84800000Y-114000000D03*
D10*
X87125000Y-114000000D03*
%TD*%
D13*
%TO.C,SW22*%
X160900000Y-80050000D03*
X165900000Y-79550000D03*
%TD*%
%TO.C,SW40*%
X84800000Y-118000000D03*
X89800000Y-117500000D03*
%TD*%
%TO.C,SW11*%
X223050000Y-107050000D03*
X218050000Y-107550000D03*
%TD*%
D11*
%TO.C,D24*%
X168750000Y-113900000D03*
D10*
X166425000Y-113900000D03*
X163275000Y-113900000D03*
D12*
X160950000Y-113900000D03*
%TD*%
D13*
%TO.C,SW37*%
X89800000Y-69000000D03*
X84800000Y-69500000D03*
%TD*%
%TO.C,SW39*%
X89800000Y-107000000D03*
X84800000Y-107500000D03*
%TD*%
%TO.C,SW35*%
X108850000Y-107000000D03*
X103850000Y-107500000D03*
%TD*%
D10*
%TO.C,D37*%
X90275000Y-73000000D03*
D11*
X92600000Y-73000000D03*
D10*
X87125000Y-73000000D03*
D12*
X84800000Y-73000000D03*
%TD*%
D11*
%TO.C,D22*%
X168750000Y-75900000D03*
D10*
X166425000Y-75900000D03*
D12*
X160950000Y-75900000D03*
D10*
X163275000Y-75900000D03*
%TD*%
D13*
%TO.C,SW19*%
X184950000Y-107050000D03*
X179950000Y-107550000D03*
%TD*%
%TO.C,SW20*%
X179950000Y-118050000D03*
X184950000Y-117550000D03*
%TD*%
%TO.C,SW10*%
X218050000Y-80050000D03*
X223050000Y-79550000D03*
%TD*%
D14*
%TO.C,SW49*%
X204300000Y-95700000D03*
X197800000Y-95700000D03*
X197800000Y-91200000D03*
X204300000Y-91200000D03*
%TD*%
D10*
%TO.C,D15*%
X204215000Y-111000000D03*
D11*
X206540000Y-111000000D03*
D12*
X198740000Y-111000000D03*
D10*
X201065000Y-111000000D03*
%TD*%
D11*
%TO.C,D27*%
X149800000Y-111000000D03*
D10*
X147475000Y-111000000D03*
X144325000Y-111000000D03*
D12*
X142000000Y-111000000D03*
%TD*%
D10*
%TO.C,D42*%
X71125000Y-76000000D03*
D11*
X73450000Y-76000000D03*
D10*
X67975000Y-76000000D03*
D12*
X65650000Y-76000000D03*
%TD*%
D10*
%TO.C,D49*%
X153975000Y-94750000D03*
D11*
X153975000Y-97075000D03*
D10*
X153975000Y-91600000D03*
D12*
X153975000Y-89275000D03*
%TD*%
D10*
%TO.C,D10*%
X223475000Y-76000000D03*
D11*
X225800000Y-76000000D03*
D12*
X218000000Y-76000000D03*
D10*
X220325000Y-76000000D03*
%TD*%
D15*
%TO.C,J2*%
X167750000Y-57375000D03*
D16*
X170290000Y-57375000D03*
X172830000Y-57375000D03*
X175370000Y-57375000D03*
X177910000Y-57375000D03*
%TD*%
D11*
%TO.C,D7*%
X242450000Y-111000000D03*
D10*
X240125000Y-111000000D03*
X236975000Y-111000000D03*
D12*
X234650000Y-111000000D03*
%TD*%
D10*
%TO.C,D3*%
X259375000Y-111000000D03*
D11*
X261700000Y-111000000D03*
D12*
X253900000Y-111000000D03*
D10*
X256225000Y-111000000D03*
%TD*%
D13*
%TO.C,SW5*%
X242100000Y-69050000D03*
X237100000Y-69550000D03*
%TD*%
%TO.C,SW4*%
X256150000Y-118050000D03*
X261150000Y-117550000D03*
%TD*%
%TO.C,SW36*%
X103850000Y-118000000D03*
X108850000Y-117500000D03*
%TD*%
%TO.C,SW38*%
X84800000Y-80000000D03*
X89800000Y-79500000D03*
%TD*%
D17*
%TO.C,U1*%
X265140000Y-87650000D03*
X265140000Y-90190000D03*
X265140000Y-92730000D03*
X265140000Y-95270000D03*
X265140000Y-97810000D03*
X265140000Y-100350000D03*
X251297000Y-98699000D03*
X253837000Y-98699000D03*
X234660000Y-94000000D03*
X234660000Y-99080000D03*
X234660000Y-96540000D03*
X262600000Y-101620000D03*
X260060000Y-101620000D03*
X257520000Y-101620000D03*
X254980000Y-101620000D03*
X252440000Y-101620000D03*
X249900000Y-101620000D03*
X247360000Y-101620000D03*
X244820000Y-101620000D03*
X242280000Y-101620000D03*
X239740000Y-101620000D03*
X237200000Y-101620000D03*
X234660000Y-101620000D03*
X234660000Y-86380000D03*
X237200000Y-86380000D03*
X239740000Y-86380000D03*
X242280000Y-86380000D03*
X244820000Y-86380000D03*
X247360000Y-86380000D03*
X249900000Y-86380000D03*
X252440000Y-86380000D03*
X254980000Y-86380000D03*
X257520000Y-86380000D03*
X260060000Y-86380000D03*
X262600000Y-86380000D03*
%TD*%
D15*
%TO.C,J5*%
X205915000Y-57225000D03*
D16*
X203375000Y-57225000D03*
X200835000Y-57225000D03*
X198295000Y-57225000D03*
%TD*%
D11*
%TO.C,D44*%
X73450000Y-114000000D03*
D10*
X71125000Y-114000000D03*
X67975000Y-114000000D03*
D12*
X65650000Y-114000000D03*
%TD*%
D13*
%TO.C,SW48*%
X46700000Y-118000000D03*
X51700000Y-117500000D03*
%TD*%
D10*
%TO.C,D23*%
X166425000Y-110900000D03*
D11*
X168750000Y-110900000D03*
D12*
X160950000Y-110900000D03*
D10*
X163275000Y-110900000D03*
%TD*%
D13*
%TO.C,SW33*%
X108850000Y-69000000D03*
X103850000Y-69500000D03*
%TD*%
D11*
%TO.C,D19*%
X187700000Y-111000000D03*
D10*
X185375000Y-111000000D03*
X182225000Y-111000000D03*
D12*
X179900000Y-111000000D03*
%TD*%
D10*
%TO.C,D18*%
X185375000Y-76000000D03*
D11*
X187700000Y-76000000D03*
D10*
X182225000Y-76000000D03*
D12*
X179900000Y-76000000D03*
%TD*%
D13*
%TO.C,SW23*%
X165900000Y-107050000D03*
X160900000Y-107550000D03*
%TD*%
D10*
%TO.C,D13*%
X204225000Y-73000000D03*
D11*
X206550000Y-73000000D03*
D10*
X201075000Y-73000000D03*
D12*
X198750000Y-73000000D03*
%TD*%
D14*
%TO.C,SW50*%
X214100000Y-95700000D03*
X207600000Y-95700000D03*
X214100000Y-91200000D03*
X207600000Y-91200000D03*
%TD*%
D10*
%TO.C,D32*%
X128325000Y-114000000D03*
D11*
X130650000Y-114000000D03*
D12*
X122850000Y-114000000D03*
D10*
X125175000Y-114000000D03*
%TD*%
%TO.C,D16*%
X204225000Y-114000000D03*
D11*
X206550000Y-114000000D03*
D10*
X201075000Y-114000000D03*
D12*
X198750000Y-114000000D03*
%TD*%
D18*
%TO.C,R2*%
X166270000Y-92150000D03*
D19*
X158650000Y-92150000D03*
%TD*%
D11*
%TO.C,D1*%
X262700000Y-72900000D03*
D10*
X260375000Y-72900000D03*
D12*
X254900000Y-72900000D03*
D10*
X257225000Y-72900000D03*
%TD*%
D13*
%TO.C,SW21*%
X165900000Y-69050000D03*
X160900000Y-69550000D03*
%TD*%
D11*
%TO.C,D30*%
X130650000Y-76200000D03*
D10*
X128325000Y-76200000D03*
D12*
X122850000Y-76200000D03*
D10*
X125175000Y-76200000D03*
%TD*%
D13*
%TO.C,SW18*%
X179950000Y-80050000D03*
X184950000Y-79550000D03*
%TD*%
D10*
%TO.C,D46*%
X52175000Y-76000000D03*
D11*
X54500000Y-76000000D03*
D12*
X46700000Y-76000000D03*
D10*
X49025000Y-76000000D03*
%TD*%
D11*
%TO.C,D14*%
X206550000Y-76000000D03*
D10*
X204225000Y-76000000D03*
X201075000Y-76000000D03*
D12*
X198750000Y-76000000D03*
%TD*%
D13*
%TO.C,SW2*%
X256150000Y-80050000D03*
X261150000Y-79550000D03*
%TD*%
D10*
%TO.C,D35*%
X109325000Y-111000000D03*
D11*
X111650000Y-111000000D03*
D10*
X106175000Y-111000000D03*
D12*
X103850000Y-111000000D03*
%TD*%
D11*
%TO.C,D8*%
X242450000Y-114000000D03*
D10*
X240125000Y-114000000D03*
X236975000Y-114000000D03*
D12*
X234650000Y-114000000D03*
%TD*%
D13*
%TO.C,SW9*%
X223100000Y-69050000D03*
X218100000Y-69550000D03*
%TD*%
D18*
%TO.C,R4*%
X175330000Y-91900000D03*
D19*
X182950000Y-91900000D03*
%TD*%
D11*
%TO.C,D34*%
X111550000Y-76000000D03*
D10*
X109225000Y-76000000D03*
D12*
X103750000Y-76000000D03*
D10*
X106075000Y-76000000D03*
%TD*%
D11*
%TO.C,U2*%
X99020000Y-97750000D03*
D20*
X101560000Y-97750000D03*
X104100000Y-97750000D03*
X106640000Y-97750000D03*
X109180000Y-97750000D03*
X111720000Y-97750000D03*
X114260000Y-97750000D03*
X116800000Y-97750000D03*
X119340000Y-97750000D03*
X121880000Y-97750000D03*
X124420000Y-97750000D03*
X126960000Y-97750000D03*
X129500000Y-97750000D03*
X132040000Y-97750000D03*
X132040000Y-90130000D03*
X129500000Y-90130000D03*
X126960000Y-90130000D03*
X124420000Y-90130000D03*
X121880000Y-90130000D03*
X119340000Y-90130000D03*
X116800000Y-90130000D03*
X114260000Y-90130000D03*
X111720000Y-90130000D03*
X109180000Y-90130000D03*
X106640000Y-90130000D03*
X104100000Y-90130000D03*
X101560000Y-90130000D03*
X99020000Y-90130000D03*
%TD*%
D13*
%TO.C,SW12*%
X218050000Y-118050000D03*
X223050000Y-117550000D03*
%TD*%
D11*
%TO.C,D31*%
X130650000Y-111000000D03*
D10*
X128325000Y-111000000D03*
X125175000Y-111000000D03*
D12*
X122850000Y-111000000D03*
%TD*%
D11*
%TO.C,D47*%
X54500000Y-111000000D03*
D10*
X52175000Y-111000000D03*
X49025000Y-111000000D03*
D12*
X46700000Y-111000000D03*
%TD*%
D18*
%TO.C,R1*%
X182820000Y-95300000D03*
D19*
X175200000Y-95300000D03*
%TD*%
D13*
%TO.C,SW32*%
X122850000Y-118000000D03*
X127850000Y-117500000D03*
%TD*%
%TO.C,SW47*%
X51700000Y-107000000D03*
X46700000Y-107500000D03*
%TD*%
%TO.C,SW34*%
X103850000Y-80000000D03*
X108850000Y-79500000D03*
%TD*%
D12*
%TO.C,C2*%
X218350000Y-94850000D03*
X218350000Y-92350000D03*
%TD*%
D10*
%TO.C,D17*%
X185375000Y-73000000D03*
D11*
X187700000Y-73000000D03*
D10*
X182225000Y-73000000D03*
D12*
X179900000Y-73000000D03*
%TD*%
D13*
%TO.C,SW41*%
X70750000Y-69000000D03*
X65750000Y-69500000D03*
%TD*%
D11*
%TO.C,D45*%
X54500000Y-73000000D03*
D10*
X52175000Y-73000000D03*
D12*
X46700000Y-73000000D03*
D10*
X49025000Y-73000000D03*
%TD*%
D11*
%TO.C,D26*%
X149600000Y-76000000D03*
D10*
X147275000Y-76000000D03*
X144125000Y-76000000D03*
D12*
X141800000Y-76000000D03*
%TD*%
D11*
%TO.C,D29*%
X130550000Y-73000000D03*
D10*
X128225000Y-73000000D03*
D12*
X122750000Y-73000000D03*
D10*
X125075000Y-73000000D03*
%TD*%
D13*
%TO.C,SW15*%
X204000000Y-107050000D03*
X199000000Y-107550000D03*
%TD*%
%TO.C,SW26*%
X141950000Y-80000000D03*
X146950000Y-79500000D03*
%TD*%
%TO.C,SW31*%
X127850000Y-107000000D03*
X122850000Y-107500000D03*
%TD*%
%TO.C,SW27*%
X146950000Y-107000000D03*
X141950000Y-107500000D03*
%TD*%
D11*
%TO.C,D6*%
X243650000Y-76000000D03*
D10*
X241325000Y-76000000D03*
X238175000Y-76000000D03*
D12*
X235850000Y-76000000D03*
%TD*%
D13*
%TO.C,SW6*%
X237100000Y-80050000D03*
X242100000Y-79550000D03*
%TD*%
%TO.C,SW28*%
X141950000Y-118000000D03*
X146950000Y-117500000D03*
%TD*%
%TO.C,SW25*%
X146900000Y-69000000D03*
X141900000Y-69500000D03*
%TD*%
%TO.C,SW3*%
X261150000Y-107050000D03*
X256150000Y-107550000D03*
%TD*%
D10*
%TO.C,D41*%
X71125000Y-73000000D03*
D11*
X73450000Y-73000000D03*
D10*
X67975000Y-73000000D03*
D12*
X65650000Y-73000000D03*
%TD*%
D13*
%TO.C,SW13*%
X204000000Y-69050000D03*
X199000000Y-69550000D03*
%TD*%
D11*
%TO.C,D28*%
X149800000Y-114000000D03*
D10*
X147475000Y-114000000D03*
D12*
X142000000Y-114000000D03*
D10*
X144325000Y-114000000D03*
%TD*%
D13*
%TO.C,SW45*%
X51700000Y-69000000D03*
X46700000Y-69500000D03*
%TD*%
D10*
%TO.C,D48*%
X52175000Y-114000000D03*
D11*
X54500000Y-114000000D03*
D12*
X46700000Y-114000000D03*
D10*
X49025000Y-114000000D03*
%TD*%
D12*
%TO.C,C4*%
X114130000Y-103150000D03*
X111630000Y-103150000D03*
%TD*%
D11*
%TO.C,D4*%
X261700000Y-114000000D03*
D10*
X259375000Y-114000000D03*
X256225000Y-114000000D03*
D12*
X253900000Y-114000000D03*
%TD*%
D13*
%TO.C,SW44*%
X65750000Y-118000000D03*
X70750000Y-117500000D03*
%TD*%
D11*
%TO.C,D21*%
X168750000Y-72900000D03*
D10*
X166425000Y-72900000D03*
X163275000Y-72900000D03*
D12*
X160950000Y-72900000D03*
%TD*%
D10*
%TO.C,D9*%
X223475000Y-73000000D03*
D11*
X225800000Y-73000000D03*
D10*
X220325000Y-73000000D03*
D12*
X218000000Y-73000000D03*
%TD*%
D13*
%TO.C,SW8*%
X237100000Y-118050000D03*
X242100000Y-117550000D03*
%TD*%
D11*
%TO.C,D33*%
X111550000Y-73000000D03*
D10*
X109225000Y-73000000D03*
D12*
X103750000Y-73000000D03*
D10*
X106075000Y-73000000D03*
%TD*%
D13*
%TO.C,SW30*%
X122850000Y-80000000D03*
X127850000Y-79500000D03*
%TD*%
%TO.C,SW7*%
X242100000Y-107050000D03*
X237100000Y-107550000D03*
%TD*%
D21*
%TO.C,Y1*%
X123700000Y-103180000D03*
X118800000Y-103180000D03*
%TD*%
D12*
%TO.C,C3*%
X128830000Y-103150000D03*
X131330000Y-103150000D03*
%TD*%
D10*
%TO.C,D5*%
X241325000Y-72925000D03*
D11*
X243650000Y-72925000D03*
D10*
X238175000Y-72925000D03*
D12*
X235850000Y-72925000D03*
%TD*%
D10*
%TO.C,D11*%
X223475000Y-111000000D03*
D11*
X225800000Y-111000000D03*
D12*
X218000000Y-111000000D03*
D10*
X220325000Y-111000000D03*
%TD*%
D15*
%TO.C,J3*%
X63450000Y-93500000D03*
D16*
X65990000Y-93500000D03*
X68530000Y-93500000D03*
X71070000Y-93500000D03*
X73610000Y-93500000D03*
X76150000Y-93500000D03*
X78690000Y-93500000D03*
X81230000Y-93500000D03*
X83770000Y-93500000D03*
X86310000Y-93500000D03*
X88850000Y-93500000D03*
X91390000Y-93500000D03*
%TD*%
D10*
%TO.C,D50*%
X153800000Y-79125000D03*
D11*
X153800000Y-76800000D03*
D10*
X153800000Y-82275000D03*
D12*
X153800000Y-84600000D03*
%TD*%
D13*
%TO.C,SW43*%
X70750000Y-107000000D03*
X65750000Y-107500000D03*
%TD*%
%TO.C,SW46*%
X46700000Y-80000000D03*
X51700000Y-79500000D03*
%TD*%
D10*
%TO.C,C1*%
X223950000Y-94250000D03*
D22*
X223950000Y-92750000D03*
%TD*%
D13*
%TO.C,SW1*%
X261150000Y-69050000D03*
X256150000Y-69550000D03*
%TD*%
D15*
%TO.C,J4*%
X58700000Y-87175000D03*
D16*
X58700000Y-84635000D03*
X58700000Y-82095000D03*
X58700000Y-79555000D03*
%TD*%
D11*
%TO.C,D25*%
X149600000Y-73000000D03*
D10*
X147275000Y-73000000D03*
D12*
X141800000Y-73000000D03*
D10*
X144125000Y-73000000D03*
%TD*%
D13*
%TO.C,SW14*%
X199000000Y-80050000D03*
X204000000Y-79550000D03*
%TD*%
%TO.C,SW16*%
X199000000Y-118050000D03*
X204000000Y-117550000D03*
%TD*%
D15*
%TO.C,J6*%
X44225000Y-92160000D03*
D16*
X44225000Y-94700000D03*
X46765000Y-92160000D03*
X46765000Y-94700000D03*
X49305000Y-92160000D03*
X49305000Y-94700000D03*
%TD*%
D10*
%TO.C,D12*%
X223475000Y-114000000D03*
D11*
X225800000Y-114000000D03*
D10*
X220325000Y-114000000D03*
D12*
X218000000Y-114000000D03*
%TD*%
%TO.C,C5*%
X118080000Y-86200000D03*
X113080000Y-86200000D03*
%TD*%
D18*
%TO.C,R3*%
X166300000Y-95300000D03*
D19*
X158680000Y-95300000D03*
%TD*%
D13*
%TO.C,SW24*%
X160900000Y-118050000D03*
X165900000Y-117550000D03*
%TD*%
D10*
%TO.C,D43*%
X71125000Y-111000000D03*
D11*
X73450000Y-111000000D03*
D10*
X67975000Y-111000000D03*
D12*
X65650000Y-111000000D03*
%TD*%
D11*
%TO.C,D38*%
X92600000Y-76000000D03*
D10*
X90275000Y-76000000D03*
X87125000Y-76000000D03*
D12*
X84800000Y-76000000D03*
%TD*%
D10*
%TO.C,D20*%
X185375000Y-114000000D03*
D11*
X187700000Y-114000000D03*
D10*
X182225000Y-114000000D03*
D12*
X179900000Y-114000000D03*
%TD*%
D15*
%TO.C,J1*%
X152775000Y-65750000D03*
D23*
X155275000Y-65750000D03*
X155275000Y-63750000D03*
X152775000Y-63750000D03*
D24*
X148005000Y-61040000D03*
X160045000Y-61040000D03*
%TD*%
D11*
%TO.C,D39*%
X92600000Y-111000000D03*
D10*
X90275000Y-111000000D03*
X87125000Y-111000000D03*
D12*
X84800000Y-111000000D03*
%TD*%
D11*
%TO.C,D36*%
X111650000Y-114200000D03*
D10*
X109325000Y-114200000D03*
D12*
X103850000Y-114200000D03*
D10*
X106175000Y-114200000D03*
%TD*%
D13*
%TO.C,SW17*%
X184950000Y-69050000D03*
X179950000Y-69550000D03*
%TD*%
%TO.C,SW42*%
X65750000Y-80000000D03*
X70750000Y-79500000D03*
%TD*%
D10*
%TO.C,D2*%
X260375000Y-76000000D03*
D11*
X262700000Y-76000000D03*
D12*
X254900000Y-76000000D03*
D10*
X257225000Y-76000000D03*
%TD*%
D13*
%TO.C,SW29*%
X127850000Y-69000000D03*
X122850000Y-69500000D03*
%TD*%
M02*
