%TF.GenerationSoftware,KiCad,Pcbnew,6.0.8+dfsg-1*%
%TF.CreationDate,2022-10-27T21:27:42-03:00*%
%TF.ProjectId,Calebe94,43616c65-6265-4393-942e-6b696361645f,rev?*%
%TF.SameCoordinates,Original*%
%TF.FileFunction,OtherDrawing,Comment*%
%FSLAX46Y46*%
G04 Gerber Fmt 4.6, Leading zero omitted, Abs format (unit mm)*
G04 Created by KiCad (PCBNEW 6.0.8+dfsg-1) date 2022-10-27 21:27:42*
%MOMM*%
%LPD*%
G01*
G04 APERTURE LIST*
%ADD10C,0.150000*%
G04 APERTURE END LIST*
D10*
%TO.C,SW22*%
X172925000Y-93575000D02*
X172925000Y-74525000D01*
X153875000Y-93575000D02*
X153875000Y-74525000D01*
X153875000Y-93575000D02*
X172925000Y-93575000D01*
X153875000Y-74525000D02*
X172925000Y-74525000D01*
%TO.C,SW40*%
X77775000Y-131525000D02*
X77775000Y-112475000D01*
X77775000Y-112475000D02*
X96825000Y-112475000D01*
X77775000Y-131525000D02*
X96825000Y-131525000D01*
X96825000Y-131525000D02*
X96825000Y-112475000D01*
%TO.C,SW11*%
X230075000Y-112575000D02*
X211025000Y-112575000D01*
X230075000Y-93525000D02*
X211025000Y-93525000D01*
X211025000Y-93525000D02*
X211025000Y-112575000D01*
X230075000Y-93525000D02*
X230075000Y-112575000D01*
%TO.C,SW37*%
X77775000Y-55475000D02*
X77775000Y-74525000D01*
X96825000Y-74525000D02*
X77775000Y-74525000D01*
X96825000Y-55475000D02*
X96825000Y-74525000D01*
X96825000Y-55475000D02*
X77775000Y-55475000D01*
%TO.C,SW39*%
X96825000Y-93475000D02*
X77775000Y-93475000D01*
X96825000Y-112525000D02*
X77775000Y-112525000D01*
X96825000Y-93475000D02*
X96825000Y-112525000D01*
X77775000Y-93475000D02*
X77775000Y-112525000D01*
%TO.C,SW35*%
X115875000Y-112525000D02*
X96825000Y-112525000D01*
X115875000Y-93475000D02*
X96825000Y-93475000D01*
X96825000Y-93475000D02*
X96825000Y-112525000D01*
X115875000Y-93475000D02*
X115875000Y-112525000D01*
%TO.C,SW19*%
X191975000Y-93525000D02*
X172925000Y-93525000D01*
X172925000Y-93525000D02*
X172925000Y-112575000D01*
X191975000Y-93525000D02*
X191975000Y-112575000D01*
X191975000Y-112575000D02*
X172925000Y-112575000D01*
%TO.C,SW20*%
X191975000Y-131575000D02*
X191975000Y-112525000D01*
X172925000Y-131575000D02*
X191975000Y-131575000D01*
X172925000Y-112525000D02*
X191975000Y-112525000D01*
X172925000Y-131575000D02*
X172925000Y-112525000D01*
%TO.C,SW10*%
X211025000Y-74525000D02*
X230075000Y-74525000D01*
X211025000Y-93575000D02*
X230075000Y-93575000D01*
X230075000Y-93575000D02*
X230075000Y-74525000D01*
X211025000Y-93575000D02*
X211025000Y-74525000D01*
%TO.C,SW5*%
X230075000Y-55525000D02*
X230075000Y-74575000D01*
X249125000Y-74575000D02*
X230075000Y-74575000D01*
X249125000Y-55525000D02*
X249125000Y-74575000D01*
X249125000Y-55525000D02*
X230075000Y-55525000D01*
%TO.C,SW4*%
X249125000Y-112525000D02*
X268175000Y-112525000D01*
X268175000Y-131575000D02*
X268175000Y-112525000D01*
X249125000Y-131575000D02*
X249125000Y-112525000D01*
X249125000Y-131575000D02*
X268175000Y-131575000D01*
%TO.C,SW36*%
X115875000Y-131525000D02*
X115875000Y-112475000D01*
X96825000Y-131525000D02*
X115875000Y-131525000D01*
X96825000Y-131525000D02*
X96825000Y-112475000D01*
X96825000Y-112475000D02*
X115875000Y-112475000D01*
%TO.C,SW38*%
X77775000Y-74475000D02*
X96825000Y-74475000D01*
X77775000Y-93525000D02*
X96825000Y-93525000D01*
X77775000Y-93525000D02*
X77775000Y-74475000D01*
X96825000Y-93525000D02*
X96825000Y-74475000D01*
%TO.C,SW48*%
X39675000Y-131525000D02*
X58725000Y-131525000D01*
X39675000Y-131525000D02*
X39675000Y-112475000D01*
X58725000Y-131525000D02*
X58725000Y-112475000D01*
X39675000Y-112475000D02*
X58725000Y-112475000D01*
%TO.C,SW33*%
X96825000Y-55475000D02*
X96825000Y-74525000D01*
X115875000Y-55475000D02*
X96825000Y-55475000D01*
X115875000Y-55475000D02*
X115875000Y-74525000D01*
X115875000Y-74525000D02*
X96825000Y-74525000D01*
%TO.C,SW23*%
X172925000Y-93525000D02*
X172925000Y-112575000D01*
X172925000Y-112575000D02*
X153875000Y-112575000D01*
X172925000Y-93525000D02*
X153875000Y-93525000D01*
X153875000Y-93525000D02*
X153875000Y-112575000D01*
%TO.C,SW21*%
X172925000Y-74575000D02*
X153875000Y-74575000D01*
X172925000Y-55525000D02*
X172925000Y-74575000D01*
X153875000Y-55525000D02*
X153875000Y-74575000D01*
X172925000Y-55525000D02*
X153875000Y-55525000D01*
%TO.C,SW18*%
X172925000Y-74525000D02*
X191975000Y-74525000D01*
X191975000Y-93575000D02*
X191975000Y-74525000D01*
X172925000Y-93575000D02*
X172925000Y-74525000D01*
X172925000Y-93575000D02*
X191975000Y-93575000D01*
%TO.C,SW2*%
X268175000Y-93575000D02*
X268175000Y-74525000D01*
X249125000Y-74525000D02*
X268175000Y-74525000D01*
X249125000Y-93575000D02*
X249125000Y-74525000D01*
X249125000Y-93575000D02*
X268175000Y-93575000D01*
%TO.C,SW9*%
X230125000Y-74575000D02*
X211075000Y-74575000D01*
X230125000Y-55525000D02*
X230125000Y-74575000D01*
X230125000Y-55525000D02*
X211075000Y-55525000D01*
X211075000Y-55525000D02*
X211075000Y-74575000D01*
%TO.C,SW12*%
X211025000Y-112525000D02*
X230075000Y-112525000D01*
X211025000Y-131575000D02*
X211025000Y-112525000D01*
X211025000Y-131575000D02*
X230075000Y-131575000D01*
X230075000Y-131575000D02*
X230075000Y-112525000D01*
%TO.C,SW32*%
X134875000Y-131525000D02*
X134875000Y-112475000D01*
X115825000Y-131525000D02*
X134875000Y-131525000D01*
X115825000Y-112475000D02*
X134875000Y-112475000D01*
X115825000Y-131525000D02*
X115825000Y-112475000D01*
%TO.C,SW47*%
X58725000Y-112525000D02*
X39675000Y-112525000D01*
X39675000Y-93475000D02*
X39675000Y-112525000D01*
X58725000Y-93475000D02*
X58725000Y-112525000D01*
X58725000Y-93475000D02*
X39675000Y-93475000D01*
%TO.C,SW34*%
X96825000Y-74475000D02*
X115875000Y-74475000D01*
X96825000Y-93525000D02*
X115875000Y-93525000D01*
X96825000Y-93525000D02*
X96825000Y-74475000D01*
X115875000Y-93525000D02*
X115875000Y-74475000D01*
%TO.C,SW41*%
X58725000Y-55475000D02*
X58725000Y-74525000D01*
X77775000Y-55475000D02*
X58725000Y-55475000D01*
X77775000Y-55475000D02*
X77775000Y-74525000D01*
X77775000Y-74525000D02*
X58725000Y-74525000D01*
%TO.C,SW15*%
X211025000Y-93525000D02*
X211025000Y-112575000D01*
X211025000Y-93525000D02*
X191975000Y-93525000D01*
X211025000Y-112575000D02*
X191975000Y-112575000D01*
X191975000Y-93525000D02*
X191975000Y-112575000D01*
%TO.C,SW26*%
X134925000Y-74475000D02*
X153975000Y-74475000D01*
X134925000Y-93525000D02*
X134925000Y-74475000D01*
X153975000Y-93525000D02*
X153975000Y-74475000D01*
X134925000Y-93525000D02*
X153975000Y-93525000D01*
%TO.C,SW31*%
X134875000Y-112525000D02*
X115825000Y-112525000D01*
X115825000Y-93475000D02*
X115825000Y-112525000D01*
X134875000Y-93475000D02*
X134875000Y-112525000D01*
X134875000Y-93475000D02*
X115825000Y-93475000D01*
%TO.C,SW27*%
X153975000Y-112525000D02*
X134925000Y-112525000D01*
X153975000Y-93475000D02*
X153975000Y-112525000D01*
X153975000Y-93475000D02*
X134925000Y-93475000D01*
X134925000Y-93475000D02*
X134925000Y-112525000D01*
%TO.C,SW6*%
X230075000Y-93575000D02*
X249125000Y-93575000D01*
X230075000Y-74525000D02*
X249125000Y-74525000D01*
X249125000Y-93575000D02*
X249125000Y-74525000D01*
X230075000Y-93575000D02*
X230075000Y-74525000D01*
%TO.C,SW28*%
X134925000Y-112475000D02*
X153975000Y-112475000D01*
X153975000Y-131525000D02*
X153975000Y-112475000D01*
X134925000Y-131525000D02*
X153975000Y-131525000D01*
X134925000Y-131525000D02*
X134925000Y-112475000D01*
%TO.C,SW25*%
X153925000Y-55475000D02*
X153925000Y-74525000D01*
X153925000Y-55475000D02*
X134875000Y-55475000D01*
X134875000Y-55475000D02*
X134875000Y-74525000D01*
X153925000Y-74525000D02*
X134875000Y-74525000D01*
%TO.C,SW3*%
X249125000Y-93525000D02*
X249125000Y-112575000D01*
X268175000Y-93525000D02*
X268175000Y-112575000D01*
X268175000Y-93525000D02*
X249125000Y-93525000D01*
X268175000Y-112575000D02*
X249125000Y-112575000D01*
%TO.C,SW13*%
X211025000Y-55525000D02*
X211025000Y-74575000D01*
X191975000Y-55525000D02*
X191975000Y-74575000D01*
X211025000Y-55525000D02*
X191975000Y-55525000D01*
X211025000Y-74575000D02*
X191975000Y-74575000D01*
%TO.C,SW45*%
X58725000Y-55475000D02*
X39675000Y-55475000D01*
X58725000Y-74525000D02*
X39675000Y-74525000D01*
X58725000Y-55475000D02*
X58725000Y-74525000D01*
X39675000Y-55475000D02*
X39675000Y-74525000D01*
%TO.C,SW44*%
X58725000Y-131525000D02*
X58725000Y-112475000D01*
X58725000Y-131525000D02*
X77775000Y-131525000D01*
X58725000Y-112475000D02*
X77775000Y-112475000D01*
X77775000Y-131525000D02*
X77775000Y-112475000D01*
%TO.C,SW8*%
X230075000Y-131575000D02*
X249125000Y-131575000D01*
X230075000Y-112525000D02*
X249125000Y-112525000D01*
X230075000Y-131575000D02*
X230075000Y-112525000D01*
X249125000Y-131575000D02*
X249125000Y-112525000D01*
%TO.C,SW30*%
X115825000Y-93525000D02*
X115825000Y-74475000D01*
X115825000Y-93525000D02*
X134875000Y-93525000D01*
X134875000Y-93525000D02*
X134875000Y-74475000D01*
X115825000Y-74475000D02*
X134875000Y-74475000D01*
%TO.C,SW7*%
X249125000Y-93525000D02*
X230075000Y-93525000D01*
X249125000Y-93525000D02*
X249125000Y-112575000D01*
X230075000Y-93525000D02*
X230075000Y-112575000D01*
X249125000Y-112575000D02*
X230075000Y-112575000D01*
%TO.C,SW43*%
X77775000Y-93475000D02*
X58725000Y-93475000D01*
X77775000Y-93475000D02*
X77775000Y-112525000D01*
X58725000Y-93475000D02*
X58725000Y-112525000D01*
X77775000Y-112525000D02*
X58725000Y-112525000D01*
%TO.C,SW46*%
X58725000Y-93525000D02*
X58725000Y-74475000D01*
X39675000Y-93525000D02*
X39675000Y-74475000D01*
X39675000Y-93525000D02*
X58725000Y-93525000D01*
X39675000Y-74475000D02*
X58725000Y-74475000D01*
%TO.C,SW1*%
X268175000Y-74575000D02*
X249125000Y-74575000D01*
X249125000Y-55525000D02*
X249125000Y-74575000D01*
X268175000Y-55525000D02*
X249125000Y-55525000D01*
X268175000Y-55525000D02*
X268175000Y-74575000D01*
%TO.C,SW14*%
X191975000Y-74525000D02*
X211025000Y-74525000D01*
X191975000Y-93575000D02*
X191975000Y-74525000D01*
X191975000Y-93575000D02*
X211025000Y-93575000D01*
X211025000Y-93575000D02*
X211025000Y-74525000D01*
%TO.C,SW16*%
X191975000Y-131575000D02*
X191975000Y-112525000D01*
X211025000Y-131575000D02*
X211025000Y-112525000D01*
X191975000Y-131575000D02*
X211025000Y-131575000D01*
X191975000Y-112525000D02*
X211025000Y-112525000D01*
%TO.C,SW24*%
X172925000Y-131575000D02*
X172925000Y-112525000D01*
X153875000Y-131575000D02*
X153875000Y-112525000D01*
X153875000Y-131575000D02*
X172925000Y-131575000D01*
X153875000Y-112525000D02*
X172925000Y-112525000D01*
%TO.C,SW17*%
X191975000Y-74575000D02*
X172925000Y-74575000D01*
X191975000Y-55525000D02*
X191975000Y-74575000D01*
X191975000Y-55525000D02*
X172925000Y-55525000D01*
X172925000Y-55525000D02*
X172925000Y-74575000D01*
%TO.C,SW42*%
X58725000Y-74475000D02*
X77775000Y-74475000D01*
X58725000Y-93525000D02*
X58725000Y-74475000D01*
X58725000Y-93525000D02*
X77775000Y-93525000D01*
X77775000Y-93525000D02*
X77775000Y-74475000D01*
%TO.C,SW29*%
X134875000Y-74525000D02*
X115825000Y-74525000D01*
X115825000Y-55475000D02*
X115825000Y-74525000D01*
X134875000Y-55475000D02*
X134875000Y-74525000D01*
X134875000Y-55475000D02*
X115825000Y-55475000D01*
%TD*%
M02*
